  0
SECTION
  2
HEADER
  9
$ACADVER
  1
AC1009
  9
$FILLMODE
 70
 0
  9
$SPLFRAME
 70
 1
  9
$EXTMIN
 10
0
 20
0
 30
0.0
  9
$EXTMAX
 10
1058.33
 20
1058.33
 30
0.0
  0
ENDSEC
  0
SECTION
  2
TABLES
  0
TABLE
  2
LAYER
 70
1
  0
LAYER
  2
0
 70
     0
 62
     7
  6
CONTINUOUS
  0
ENDTAB
  0
ENDSEC
  0
SECTION
  2
ENTITIES
  0
LINE
  8
0
 62
     0
 10
0.0950846
 20
95.5075
 30
0.0
 11
414.433
 21
95.5075
 31
0.0
  0
LINE
  8
0
 62
     0
 10
414.433
 20
95.5075
 30
0.0
 11
414.433
 21
0.257693
 31
0.0
  0
LINE
  8
0
 62
     0
 10
414.433
 20
0.257693
 30
0.0
 11
0.0950846
 21
0.257693
 31
0.0
  0
LINE
  8
0
 62
     0
 10
0.0950846
 20
0.257693
 30
0.0
 11
0.0950846
 21
95.5075
 31
0.0
  0
LINE
  8
0
 62
     0
 10
74.0572
 20
16.7831
 30
0.0
 11
74.0572
 21
12.0826
 31
0.0
  0
LINE
  8
0
 62
     0
 10
74.0572
 20
12.0826
 30
0.0
 11
72.5318
 21
12.0826
 31
0.0
  0
LINE
  8
0
 62
     0
 10
72.5318
 20
12.0826
 30
0.0
 11
72.5318
 21
15.3128
 31
0.0
  0
LINE
  8
0
 62
     0
 10
72.5318
 20
15.3128
 30
0.0
 11
70.8064
 21
15.3128
 31
0.0
  0
LINE
  8
0
 62
     0
 10
70.8064
 20
15.3128
 30
0.0
 11
70.8064
 21
16.2333
 31
0.0
  0
LINE
  8
0
 62
     0
 10
70.8064
 20
16.2333
 30
0.0
 11
67.5058
 21
16.2333
 31
0.0
  0
LINE
  8
0
 62
     0
 10
67.5058
 20
16.2333
 30
0.0
 11
67.5058
 21
15.3128
 31
0.0
  0
LINE
  8
0
 62
     0
 10
67.5058
 20
15.3128
 30
0.0
 11
65.7821
 21
15.3128
 31
0.0
  0
LINE
  8
0
 62
     0
 10
65.7821
 20
15.3128
 30
0.0
 11
65.7821
 21
12.0826
 31
0.0
  0
LINE
  8
0
 62
     0
 10
65.7821
 20
12.0826
 30
0.0
 11
64.9566
 21
12.0826
 31
0.0
  0
LINE
  8
0
 62
     0
 10
64.9566
 20
12.0826
 30
0.0
 11
64.9566
 21
9.28384
 31
0.0
  0
LINE
  8
0
 62
     0
 10
64.9566
 20
9.28384
 30
0.0
 11
65.7821
 21
9.28384
 31
0.0
  0
LINE
  8
0
 62
     0
 10
65.7821
 20
9.28384
 30
0.0
 11
65.7821
 21
3.01377
 31
0.0
  0
LINE
  8
0
 62
     0
 10
65.7821
 20
3.01377
 30
0.0
 11
67.5058
 21
3.01377
 31
0.0
  0
LINE
  8
0
 62
     0
 10
67.5058
 20
3.01377
 30
0.0
 11
67.5058
 21
2.03261
 31
0.0
  0
LINE
  8
0
 62
     0
 10
67.5058
 20
2.03261
 30
0.0
 11
70.8064
 21
2.03261
 31
0.0
  0
LINE
  8
0
 62
     0
 10
70.8064
 20
2.03261
 30
0.0
 11
70.8064
 21
3.01377
 31
0.0
  0
LINE
  8
0
 62
     0
 10
70.8064
 20
3.01377
 30
0.0
 11
72.5318
 21
3.01377
 31
0.0
  0
LINE
  8
0
 62
     0
 10
72.5318
 20
3.01377
 30
0.0
 11
72.5318
 21
7.48273
 31
0.0
  0
LINE
  8
0
 62
     0
 10
72.5318
 20
7.48273
 30
0.0
 11
74.0572
 21
7.48273
 31
0.0
  0
LINE
  8
0
 62
     0
 10
74.0572
 20
7.48273
 30
0.0
 11
74.0572
 21
2.78364
 31
0.0
  0
LINE
  8
0
 62
     0
 10
74.0572
 20
2.78364
 30
0.0
 11
88.0565
 21
2.78364
 31
0.0
  0
LINE
  8
0
 62
     0
 10
88.0565
 20
2.78364
 30
0.0
 11
88.0565
 21
7.48273
 31
0.0
  0
LINE
  8
0
 62
     0
 10
88.0565
 20
7.48273
 30
0.0
 11
89.5823
 21
7.48273
 31
0.0
  0
LINE
  8
0
 62
     0
 10
89.5823
 20
7.48273
 30
0.0
 11
89.5823
 21
3.01377
 31
0.0
  0
LINE
  8
0
 62
     0
 10
89.5823
 20
3.01377
 30
0.0
 11
91.3059
 21
3.01377
 31
0.0
  0
LINE
  8
0
 62
     0
 10
91.3059
 20
3.01377
 30
0.0
 11
91.3059
 21
2.03261
 31
0.0
  0
LINE
  8
0
 62
     0
 10
91.3059
 20
2.03261
 30
0.0
 11
94.6065
 21
2.03261
 31
0.0
  0
LINE
  8
0
 62
     0
 10
94.6065
 20
2.03261
 30
0.0
 11
94.6065
 21
3.01377
 31
0.0
  0
LINE
  8
0
 62
     0
 10
94.6065
 20
3.01377
 30
0.0
 11
96.3316
 21
3.01377
 31
0.0
  0
LINE
  8
0
 62
     0
 10
96.3316
 20
3.01377
 30
0.0
 11
96.3316
 21
9.28384
 31
0.0
  0
LINE
  8
0
 62
     0
 10
96.3316
 20
9.28384
 30
0.0
 11
97.1557
 21
9.28384
 31
0.0
  0
LINE
  8
0
 62
     0
 10
97.1557
 20
9.28384
 30
0.0
 11
97.1557
 21
12.0826
 31
0.0
  0
LINE
  8
0
 62
     0
 10
97.1557
 20
12.0826
 30
0.0
 11
96.3316
 21
12.0826
 31
0.0
  0
LINE
  8
0
 62
     0
 10
96.3316
 20
12.0826
 30
0.0
 11
96.3316
 21
15.3128
 31
0.0
  0
LINE
  8
0
 62
     0
 10
96.3316
 20
15.3128
 30
0.0
 11
94.6065
 21
15.3128
 31
0.0
  0
LINE
  8
0
 62
     0
 10
94.6065
 20
15.3128
 30
0.0
 11
94.6065
 21
16.2333
 31
0.0
  0
LINE
  8
0
 62
     0
 10
94.6065
 20
16.2333
 30
0.0
 11
91.3059
 21
16.2333
 31
0.0
  0
LINE
  8
0
 62
     0
 10
91.3059
 20
16.2333
 30
0.0
 11
91.3059
 21
15.3128
 31
0.0
  0
LINE
  8
0
 62
     0
 10
91.3059
 20
15.3128
 30
0.0
 11
89.5823
 21
15.3128
 31
0.0
  0
LINE
  8
0
 62
     0
 10
89.5823
 20
15.3128
 30
0.0
 11
89.5823
 21
12.0826
 31
0.0
  0
LINE
  8
0
 62
     0
 10
89.5823
 20
12.0826
 30
0.0
 11
88.0565
 21
12.0826
 31
0.0
  0
LINE
  8
0
 62
     0
 10
88.0565
 20
12.0826
 30
0.0
 11
88.0565
 21
16.7831
 31
0.0
  0
LINE
  8
0
 62
     0
 10
88.0565
 20
16.7831
 30
0.0
 11
74.0572
 21
16.7831
 31
0.0
  0
LINE
  8
0
 62
     0
 10
293.132
 20
16.7831
 30
0.0
 11
293.132
 21
12.0826
 31
0.0
  0
LINE
  8
0
 62
     0
 10
293.132
 20
12.0826
 30
0.0
 11
291.607
 21
12.0826
 31
0.0
  0
LINE
  8
0
 62
     0
 10
291.607
 20
12.0826
 30
0.0
 11
291.607
 21
15.3128
 31
0.0
  0
LINE
  8
0
 62
     0
 10
291.607
 20
15.3128
 30
0.0
 11
289.881
 21
15.3128
 31
0.0
  0
LINE
  8
0
 62
     0
 10
289.881
 20
15.3128
 30
0.0
 11
289.881
 21
16.2333
 31
0.0
  0
LINE
  8
0
 62
     0
 10
289.881
 20
16.2333
 30
0.0
 11
286.581
 21
16.2333
 31
0.0
  0
LINE
  8
0
 62
     0
 10
286.581
 20
16.2333
 30
0.0
 11
286.581
 21
15.3128
 31
0.0
  0
LINE
  8
0
 62
     0
 10
286.581
 20
15.3128
 30
0.0
 11
284.857
 21
15.3128
 31
0.0
  0
LINE
  8
0
 62
     0
 10
284.857
 20
15.3128
 30
0.0
 11
284.857
 21
12.0826
 31
0.0
  0
LINE
  8
0
 62
     0
 10
284.857
 20
12.0826
 30
0.0
 11
284.032
 21
12.0826
 31
0.0
  0
LINE
  8
0
 62
     0
 10
284.032
 20
12.0826
 30
0.0
 11
284.032
 21
9.28384
 31
0.0
  0
LINE
  8
0
 62
     0
 10
284.032
 20
9.28384
 30
0.0
 11
284.857
 21
9.28384
 31
0.0
  0
LINE
  8
0
 62
     0
 10
284.857
 20
9.28384
 30
0.0
 11
284.857
 21
3.01377
 31
0.0
  0
LINE
  8
0
 62
     0
 10
284.857
 20
3.01377
 30
0.0
 11
286.581
 21
3.01377
 31
0.0
  0
LINE
  8
0
 62
     0
 10
286.581
 20
3.01377
 30
0.0
 11
286.581
 21
2.03261
 31
0.0
  0
LINE
  8
0
 62
     0
 10
286.581
 20
2.03261
 30
0.0
 11
289.881
 21
2.03261
 31
0.0
  0
LINE
  8
0
 62
     0
 10
289.881
 20
2.03261
 30
0.0
 11
289.881
 21
3.01377
 31
0.0
  0
LINE
  8
0
 62
     0
 10
289.881
 20
3.01377
 30
0.0
 11
291.607
 21
3.01377
 31
0.0
  0
LINE
  8
0
 62
     0
 10
291.607
 20
3.01377
 30
0.0
 11
291.607
 21
7.48273
 31
0.0
  0
LINE
  8
0
 62
     0
 10
291.607
 20
7.48273
 30
0.0
 11
293.132
 21
7.48273
 31
0.0
  0
LINE
  8
0
 62
     0
 10
293.132
 20
7.48273
 30
0.0
 11
293.132
 21
2.78364
 31
0.0
  0
LINE
  8
0
 62
     0
 10
293.132
 20
2.78364
 30
0.0
 11
307.132
 21
2.78364
 31
0.0
  0
LINE
  8
0
 62
     0
 10
307.132
 20
2.78364
 30
0.0
 11
307.132
 21
7.48273
 31
0.0
  0
LINE
  8
0
 62
     0
 10
307.132
 20
7.48273
 30
0.0
 11
308.657
 21
7.48273
 31
0.0
  0
LINE
  8
0
 62
     0
 10
308.657
 20
7.48273
 30
0.0
 11
308.657
 21
3.01377
 31
0.0
  0
LINE
  8
0
 62
     0
 10
308.657
 20
3.01377
 30
0.0
 11
310.381
 21
3.01377
 31
0.0
  0
LINE
  8
0
 62
     0
 10
310.381
 20
3.01377
 30
0.0
 11
310.381
 21
2.03261
 31
0.0
  0
LINE
  8
0
 62
     0
 10
310.381
 20
2.03261
 30
0.0
 11
313.682
 21
2.03261
 31
0.0
  0
LINE
  8
0
 62
     0
 10
313.682
 20
2.03261
 30
0.0
 11
313.682
 21
3.01377
 31
0.0
  0
LINE
  8
0
 62
     0
 10
313.682
 20
3.01377
 30
0.0
 11
315.407
 21
3.01377
 31
0.0
  0
LINE
  8
0
 62
     0
 10
315.407
 20
3.01377
 30
0.0
 11
315.407
 21
9.28384
 31
0.0
  0
LINE
  8
0
 62
     0
 10
315.407
 20
9.28384
 30
0.0
 11
316.231
 21
9.28384
 31
0.0
  0
LINE
  8
0
 62
     0
 10
316.231
 20
9.28384
 30
0.0
 11
316.231
 21
12.0826
 31
0.0
  0
LINE
  8
0
 62
     0
 10
316.231
 20
12.0826
 30
0.0
 11
315.407
 21
12.0826
 31
0.0
  0
LINE
  8
0
 62
     0
 10
315.407
 20
12.0826
 30
0.0
 11
315.407
 21
15.3128
 31
0.0
  0
LINE
  8
0
 62
     0
 10
315.407
 20
15.3128
 30
0.0
 11
313.682
 21
15.3128
 31
0.0
  0
LINE
  8
0
 62
     0
 10
313.682
 20
15.3128
 30
0.0
 11
313.682
 21
16.2333
 31
0.0
  0
LINE
  8
0
 62
     0
 10
313.682
 20
16.2333
 30
0.0
 11
310.381
 21
16.2333
 31
0.0
  0
LINE
  8
0
 62
     0
 10
310.381
 20
16.2333
 30
0.0
 11
310.381
 21
15.3128
 31
0.0
  0
LINE
  8
0
 62
     0
 10
310.381
 20
15.3128
 30
0.0
 11
308.657
 21
15.3128
 31
0.0
  0
LINE
  8
0
 62
     0
 10
308.657
 20
15.3128
 30
0.0
 11
308.657
 21
12.0826
 31
0.0
  0
LINE
  8
0
 62
     0
 10
308.657
 20
12.0826
 30
0.0
 11
307.132
 21
12.0826
 31
0.0
  0
LINE
  8
0
 62
     0
 10
307.132
 20
12.0826
 30
0.0
 11
307.132
 21
16.7831
 31
0.0
  0
LINE
  8
0
 62
     0
 10
307.132
 20
16.7831
 30
0.0
 11
293.132
 21
16.7831
 31
0.0
  0
LINE
  8
0
 62
     0
 10
331.232
 20
16.7831
 30
0.0
 11
331.232
 21
12.0826
 31
0.0
  0
LINE
  8
0
 62
     0
 10
331.232
 20
12.0826
 30
0.0
 11
329.707
 21
12.0826
 31
0.0
  0
LINE
  8
0
 62
     0
 10
329.707
 20
12.0826
 30
0.0
 11
329.707
 21
15.3128
 31
0.0
  0
LINE
  8
0
 62
     0
 10
329.707
 20
15.3128
 30
0.0
 11
327.981
 21
15.3128
 31
0.0
  0
LINE
  8
0
 62
     0
 10
327.981
 20
15.3128
 30
0.0
 11
327.981
 21
16.2333
 31
0.0
  0
LINE
  8
0
 62
     0
 10
327.981
 20
16.2333
 30
0.0
 11
324.681
 21
16.2333
 31
0.0
  0
LINE
  8
0
 62
     0
 10
324.681
 20
16.2333
 30
0.0
 11
324.681
 21
15.3128
 31
0.0
  0
LINE
  8
0
 62
     0
 10
324.681
 20
15.3128
 30
0.0
 11
322.957
 21
15.3128
 31
0.0
  0
LINE
  8
0
 62
     0
 10
322.957
 20
15.3128
 30
0.0
 11
322.957
 21
12.0826
 31
0.0
  0
LINE
  8
0
 62
     0
 10
322.957
 20
12.0826
 30
0.0
 11
322.132
 21
12.0826
 31
0.0
  0
LINE
  8
0
 62
     0
 10
322.132
 20
12.0826
 30
0.0
 11
322.132
 21
9.28384
 31
0.0
  0
LINE
  8
0
 62
     0
 10
322.132
 20
9.28384
 30
0.0
 11
322.957
 21
9.28384
 31
0.0
  0
LINE
  8
0
 62
     0
 10
322.957
 20
9.28384
 30
0.0
 11
322.957
 21
3.01377
 31
0.0
  0
LINE
  8
0
 62
     0
 10
322.957
 20
3.01377
 30
0.0
 11
324.681
 21
3.01377
 31
0.0
  0
LINE
  8
0
 62
     0
 10
324.681
 20
3.01377
 30
0.0
 11
324.681
 21
2.03261
 31
0.0
  0
LINE
  8
0
 62
     0
 10
324.681
 20
2.03261
 30
0.0
 11
327.981
 21
2.03261
 31
0.0
  0
LINE
  8
0
 62
     0
 10
327.981
 20
2.03261
 30
0.0
 11
327.981
 21
3.01377
 31
0.0
  0
LINE
  8
0
 62
     0
 10
327.981
 20
3.01377
 30
0.0
 11
329.707
 21
3.01377
 31
0.0
  0
LINE
  8
0
 62
     0
 10
329.707
 20
3.01377
 30
0.0
 11
329.707
 21
7.48273
 31
0.0
  0
LINE
  8
0
 62
     0
 10
329.707
 20
7.48273
 30
0.0
 11
331.232
 21
7.48273
 31
0.0
  0
LINE
  8
0
 62
     0
 10
331.232
 20
7.48273
 30
0.0
 11
331.232
 21
2.78364
 31
0.0
  0
LINE
  8
0
 62
     0
 10
331.232
 20
2.78364
 30
0.0
 11
345.232
 21
2.78364
 31
0.0
  0
LINE
  8
0
 62
     0
 10
345.232
 20
2.78364
 30
0.0
 11
345.232
 21
7.48273
 31
0.0
  0
LINE
  8
0
 62
     0
 10
345.232
 20
7.48273
 30
0.0
 11
346.757
 21
7.48273
 31
0.0
  0
LINE
  8
0
 62
     0
 10
346.757
 20
7.48273
 30
0.0
 11
346.757
 21
3.01377
 31
0.0
  0
LINE
  8
0
 62
     0
 10
346.757
 20
3.01377
 30
0.0
 11
348.481
 21
3.01377
 31
0.0
  0
LINE
  8
0
 62
     0
 10
348.481
 20
3.01377
 30
0.0
 11
348.481
 21
2.03261
 31
0.0
  0
LINE
  8
0
 62
     0
 10
348.481
 20
2.03261
 30
0.0
 11
351.782
 21
2.03261
 31
0.0
  0
LINE
  8
0
 62
     0
 10
351.782
 20
2.03261
 30
0.0
 11
351.782
 21
3.01377
 31
0.0
  0
LINE
  8
0
 62
     0
 10
351.782
 20
3.01377
 30
0.0
 11
353.508
 21
3.01377
 31
0.0
  0
LINE
  8
0
 62
     0
 10
353.508
 20
3.01377
 30
0.0
 11
353.508
 21
9.28384
 31
0.0
  0
LINE
  8
0
 62
     0
 10
353.508
 20
9.28384
 30
0.0
 11
354.33
 21
9.28384
 31
0.0
  0
LINE
  8
0
 62
     0
 10
354.33
 20
9.28384
 30
0.0
 11
354.33
 21
12.0826
 31
0.0
  0
LINE
  8
0
 62
     0
 10
354.33
 20
12.0826
 30
0.0
 11
353.508
 21
12.0826
 31
0.0
  0
LINE
  8
0
 62
     0
 10
353.508
 20
12.0826
 30
0.0
 11
353.508
 21
15.3128
 31
0.0
  0
LINE
  8
0
 62
     0
 10
353.508
 20
15.3128
 30
0.0
 11
351.782
 21
15.3128
 31
0.0
  0
LINE
  8
0
 62
     0
 10
351.782
 20
15.3128
 30
0.0
 11
351.782
 21
16.2333
 31
0.0
  0
LINE
  8
0
 62
     0
 10
351.782
 20
16.2333
 30
0.0
 11
348.481
 21
16.2333
 31
0.0
  0
LINE
  8
0
 62
     0
 10
348.481
 20
16.2333
 30
0.0
 11
348.481
 21
15.3128
 31
0.0
  0
LINE
  8
0
 62
     0
 10
348.481
 20
15.3128
 30
0.0
 11
346.757
 21
15.3128
 31
0.0
  0
LINE
  8
0
 62
     0
 10
346.757
 20
15.3128
 30
0.0
 11
346.757
 21
12.0826
 31
0.0
  0
LINE
  8
0
 62
     0
 10
346.757
 20
12.0826
 30
0.0
 11
345.232
 21
12.0826
 31
0.0
  0
LINE
  8
0
 62
     0
 10
345.232
 20
12.0826
 30
0.0
 11
345.232
 21
16.7831
 31
0.0
  0
LINE
  8
0
 62
     0
 10
345.232
 20
16.7831
 30
0.0
 11
331.232
 21
16.7831
 31
0.0
  0
LINE
  8
0
 62
     0
 10
369.334
 20
16.7831
 30
0.0
 11
369.334
 21
12.0826
 31
0.0
  0
LINE
  8
0
 62
     0
 10
369.334
 20
12.0826
 30
0.0
 11
367.806
 21
12.0826
 31
0.0
  0
LINE
  8
0
 62
     0
 10
367.806
 20
12.0826
 30
0.0
 11
367.806
 21
15.3128
 31
0.0
  0
LINE
  8
0
 62
     0
 10
367.806
 20
15.3128
 30
0.0
 11
366.081
 21
15.3128
 31
0.0
  0
LINE
  8
0
 62
     0
 10
366.081
 20
15.3128
 30
0.0
 11
366.081
 21
16.2333
 31
0.0
  0
LINE
  8
0
 62
     0
 10
366.081
 20
16.2333
 30
0.0
 11
362.783
 21
16.2333
 31
0.0
  0
LINE
  8
0
 62
     0
 10
362.783
 20
16.2333
 30
0.0
 11
362.783
 21
15.3128
 31
0.0
  0
LINE
  8
0
 62
     0
 10
362.783
 20
15.3128
 30
0.0
 11
361.057
 21
15.3128
 31
0.0
  0
LINE
  8
0
 62
     0
 10
361.057
 20
15.3128
 30
0.0
 11
361.057
 21
12.0826
 31
0.0
  0
LINE
  8
0
 62
     0
 10
361.057
 20
12.0826
 30
0.0
 11
360.232
 21
12.0826
 31
0.0
  0
LINE
  8
0
 62
     0
 10
360.232
 20
12.0826
 30
0.0
 11
360.232
 21
9.28384
 31
0.0
  0
LINE
  8
0
 62
     0
 10
360.232
 20
9.28384
 30
0.0
 11
361.057
 21
9.28384
 31
0.0
  0
LINE
  8
0
 62
     0
 10
361.057
 20
9.28384
 30
0.0
 11
361.057
 21
3.01377
 31
0.0
  0
LINE
  8
0
 62
     0
 10
361.057
 20
3.01377
 30
0.0
 11
362.783
 21
3.01377
 31
0.0
  0
LINE
  8
0
 62
     0
 10
362.783
 20
3.01377
 30
0.0
 11
362.783
 21
2.03261
 31
0.0
  0
LINE
  8
0
 62
     0
 10
362.783
 20
2.03261
 30
0.0
 11
366.081
 21
2.03261
 31
0.0
  0
LINE
  8
0
 62
     0
 10
366.081
 20
2.03261
 30
0.0
 11
366.081
 21
3.01377
 31
0.0
  0
LINE
  8
0
 62
     0
 10
366.081
 20
3.01377
 30
0.0
 11
367.806
 21
3.01377
 31
0.0
  0
LINE
  8
0
 62
     0
 10
367.806
 20
3.01377
 30
0.0
 11
367.806
 21
7.48273
 31
0.0
  0
LINE
  8
0
 62
     0
 10
367.806
 20
7.48273
 30
0.0
 11
369.334
 21
7.48273
 31
0.0
  0
LINE
  8
0
 62
     0
 10
369.334
 20
7.48273
 30
0.0
 11
369.334
 21
2.78364
 31
0.0
  0
LINE
  8
0
 62
     0
 10
369.334
 20
2.78364
 30
0.0
 11
383.332
 21
2.78364
 31
0.0
  0
LINE
  8
0
 62
     0
 10
383.332
 20
2.78364
 30
0.0
 11
383.332
 21
7.48273
 31
0.0
  0
LINE
  8
0
 62
     0
 10
383.332
 20
7.48273
 30
0.0
 11
384.856
 21
7.48273
 31
0.0
  0
LINE
  8
0
 62
     0
 10
384.856
 20
7.48273
 30
0.0
 11
384.856
 21
3.01377
 31
0.0
  0
LINE
  8
0
 62
     0
 10
384.856
 20
3.01377
 30
0.0
 11
386.581
 21
3.01377
 31
0.0
  0
LINE
  8
0
 62
     0
 10
386.581
 20
3.01377
 30
0.0
 11
386.581
 21
2.03261
 31
0.0
  0
LINE
  8
0
 62
     0
 10
386.581
 20
2.03261
 30
0.0
 11
389.883
 21
2.03261
 31
0.0
  0
LINE
  8
0
 62
     0
 10
389.883
 20
2.03261
 30
0.0
 11
389.883
 21
3.01377
 31
0.0
  0
LINE
  8
0
 62
     0
 10
389.883
 20
3.01377
 30
0.0
 11
391.608
 21
3.01377
 31
0.0
  0
LINE
  8
0
 62
     0
 10
391.608
 20
3.01377
 30
0.0
 11
391.608
 21
9.28384
 31
0.0
  0
LINE
  8
0
 62
     0
 10
391.608
 20
9.28384
 30
0.0
 11
392.43
 21
9.28384
 31
0.0
  0
LINE
  8
0
 62
     0
 10
392.43
 20
9.28384
 30
0.0
 11
392.43
 21
12.0826
 31
0.0
  0
LINE
  8
0
 62
     0
 10
392.43
 20
12.0826
 30
0.0
 11
391.608
 21
12.0826
 31
0.0
  0
LINE
  8
0
 62
     0
 10
391.608
 20
12.0826
 30
0.0
 11
391.608
 21
15.3128
 31
0.0
  0
LINE
  8
0
 62
     0
 10
391.608
 20
15.3128
 30
0.0
 11
389.883
 21
15.3128
 31
0.0
  0
LINE
  8
0
 62
     0
 10
389.883
 20
15.3128
 30
0.0
 11
389.883
 21
16.2333
 31
0.0
  0
LINE
  8
0
 62
     0
 10
389.883
 20
16.2333
 30
0.0
 11
386.581
 21
16.2333
 31
0.0
  0
LINE
  8
0
 62
     0
 10
386.581
 20
16.2333
 30
0.0
 11
386.581
 21
15.3128
 31
0.0
  0
LINE
  8
0
 62
     0
 10
386.581
 20
15.3128
 30
0.0
 11
384.856
 21
15.3128
 31
0.0
  0
LINE
  8
0
 62
     0
 10
384.856
 20
15.3128
 30
0.0
 11
384.856
 21
12.0826
 31
0.0
  0
LINE
  8
0
 62
     0
 10
384.856
 20
12.0826
 30
0.0
 11
383.332
 21
12.0826
 31
0.0
  0
LINE
  8
0
 62
     0
 10
383.332
 20
12.0826
 30
0.0
 11
383.332
 21
16.7831
 31
0.0
  0
LINE
  8
0
 62
     0
 10
383.332
 20
16.7831
 30
0.0
 11
369.334
 21
16.7831
 31
0.0
  0
LINE
  8
0
 62
     0
 10
2.61965
 20
16.7831
 30
0.0
 11
16.6192
 21
16.7831
 31
0.0
  0
LINE
  8
0
 62
     0
 10
16.6192
 20
16.7831
 30
0.0
 11
16.6192
 21
2.78364
 31
0.0
  0
LINE
  8
0
 62
     0
 10
16.6192
 20
2.78364
 30
0.0
 11
2.61965
 21
2.78364
 31
0.0
  0
LINE
  8
0
 62
     0
 10
2.61965
 20
2.78364
 30
0.0
 11
2.61965
 21
16.7831
 31
0.0
  0
LINE
  8
0
 62
     0
 10
21.6697
 20
16.7831
 30
0.0
 11
35.669
 21
16.7831
 31
0.0
  0
LINE
  8
0
 62
     0
 10
35.669
 20
16.7831
 30
0.0
 11
35.669
 21
2.78364
 31
0.0
  0
LINE
  8
0
 62
     0
 10
35.669
 20
2.78364
 30
0.0
 11
21.6697
 21
2.78364
 31
0.0
  0
LINE
  8
0
 62
     0
 10
21.6697
 20
2.78364
 30
0.0
 11
21.6697
 21
16.7831
 31
0.0
  0
LINE
  8
0
 62
     0
 10
183.595
 20
16.7831
 30
0.0
 11
197.594
 21
16.7831
 31
0.0
  0
LINE
  8
0
 62
     0
 10
197.594
 20
16.7831
 30
0.0
 11
197.594
 21
2.78364
 31
0.0
  0
LINE
  8
0
 62
     0
 10
197.594
 20
2.78364
 30
0.0
 11
183.595
 21
2.78364
 31
0.0
  0
LINE
  8
0
 62
     0
 10
183.595
 20
2.78364
 30
0.0
 11
183.595
 21
16.7831
 31
0.0
  0
LINE
  8
0
 62
     0
 10
404.407
 20
52.0831
 30
0.0
 11
404.407
 21
51.259
 31
0.0
  0
LINE
  8
0
 62
     0
 10
404.407
 20
51.259
 30
0.0
 11
398.134
 21
51.259
 31
0.0
  0
LINE
  8
0
 62
     0
 10
398.134
 20
51.259
 30
0.0
 11
398.134
 21
49.5335
 31
0.0
  0
LINE
  8
0
 62
     0
 10
398.134
 20
49.5335
 30
0.0
 11
397.157
 21
49.5335
 31
0.0
  0
LINE
  8
0
 62
     0
 10
397.157
 20
49.5335
 30
0.0
 11
397.157
 21
46.2333
 31
0.0
  0
LINE
  8
0
 62
     0
 10
397.157
 20
46.2333
 30
0.0
 11
398.134
 21
46.2333
 31
0.0
  0
LINE
  8
0
 62
     0
 10
398.134
 20
46.2333
 30
0.0
 11
398.134
 21
44.5079
 31
0.0
  0
LINE
  8
0
 62
     0
 10
398.134
 20
44.5079
 30
0.0
 11
402.608
 21
44.5079
 31
0.0
  0
LINE
  8
0
 62
     0
 10
402.608
 20
44.5079
 30
0.0
 11
402.608
 21
35.833
 31
0.0
  0
LINE
  8
0
 62
     0
 10
402.608
 20
35.833
 30
0.0
 11
397.909
 21
35.833
 31
0.0
  0
LINE
  8
0
 62
     0
 10
397.909
 20
35.833
 30
0.0
 11
397.909
 21
21.8336
 31
0.0
  0
LINE
  8
0
 62
     0
 10
397.909
 20
21.8336
 30
0.0
 11
402.608
 21
21.8336
 31
0.0
  0
LINE
  8
0
 62
     0
 10
402.608
 20
21.8336
 30
0.0
 11
402.608
 21
13.1589
 31
0.0
  0
LINE
  8
0
 62
     0
 10
402.608
 20
13.1589
 30
0.0
 11
398.134
 21
13.1589
 31
0.0
  0
LINE
  8
0
 62
     0
 10
398.134
 20
13.1589
 30
0.0
 11
398.134
 21
11.4336
 31
0.0
  0
LINE
  8
0
 62
     0
 10
398.134
 20
11.4336
 30
0.0
 11
397.157
 21
11.4336
 31
0.0
  0
LINE
  8
0
 62
     0
 10
397.157
 20
11.4336
 30
0.0
 11
397.157
 21
8.13319
 31
0.0
  0
LINE
  8
0
 62
     0
 10
397.157
 20
8.13319
 30
0.0
 11
398.134
 21
8.13319
 31
0.0
  0
LINE
  8
0
 62
     0
 10
398.134
 20
8.13319
 30
0.0
 11
398.134
 21
6.40789
 31
0.0
  0
LINE
  8
0
 62
     0
 10
398.134
 20
6.40789
 30
0.0
 11
404.407
 21
6.40789
 31
0.0
  0
LINE
  8
0
 62
     0
 10
404.407
 20
6.40789
 30
0.0
 11
404.407
 21
5.5838
 31
0.0
  0
LINE
  8
0
 62
     0
 10
404.407
 20
5.5838
 30
0.0
 11
407.208
 21
5.5838
 31
0.0
  0
LINE
  8
0
 62
     0
 10
407.208
 20
5.5838
 30
0.0
 11
407.208
 21
6.40789
 31
0.0
  0
LINE
  8
0
 62
     0
 10
407.208
 20
6.40789
 30
0.0
 11
410.436
 21
6.40789
 31
0.0
  0
LINE
  8
0
 62
     0
 10
410.436
 20
6.40789
 30
0.0
 11
410.436
 21
8.13319
 31
0.0
  0
LINE
  8
0
 62
     0
 10
410.436
 20
8.13319
 30
0.0
 11
411.357
 21
8.13319
 31
0.0
  0
LINE
  8
0
 62
     0
 10
411.357
 20
8.13319
 30
0.0
 11
411.357
 21
11.4336
 31
0.0
  0
LINE
  8
0
 62
     0
 10
411.357
 20
11.4336
 30
0.0
 11
410.436
 21
11.4336
 31
0.0
  0
LINE
  8
0
 62
     0
 10
410.436
 20
11.4336
 30
0.0
 11
410.436
 21
13.1589
 31
0.0
  0
LINE
  8
0
 62
     0
 10
410.436
 20
13.1589
 30
0.0
 11
407.208
 21
13.1589
 31
0.0
  0
LINE
  8
0
 62
     0
 10
407.208
 20
13.1589
 30
0.0
 11
407.208
 21
21.8336
 31
0.0
  0
LINE
  8
0
 62
     0
 10
407.208
 20
21.8336
 30
0.0
 11
411.907
 21
21.8336
 31
0.0
  0
LINE
  8
0
 62
     0
 10
411.907
 20
21.8336
 30
0.0
 11
411.907
 21
35.833
 31
0.0
  0
LINE
  8
0
 62
     0
 10
411.907
 20
35.833
 30
0.0
 11
407.208
 21
35.833
 31
0.0
  0
LINE
  8
0
 62
     0
 10
407.208
 20
35.833
 30
0.0
 11
407.208
 21
44.5079
 31
0.0
  0
LINE
  8
0
 62
     0
 10
407.208
 20
44.5079
 30
0.0
 11
410.436
 21
44.5079
 31
0.0
  0
LINE
  8
0
 62
     0
 10
410.436
 20
44.5079
 30
0.0
 11
410.436
 21
46.2333
 31
0.0
  0
LINE
  8
0
 62
     0
 10
410.436
 20
46.2333
 30
0.0
 11
411.357
 21
46.2333
 31
0.0
  0
LINE
  8
0
 62
     0
 10
411.357
 20
46.2333
 30
0.0
 11
411.357
 21
49.5335
 31
0.0
  0
LINE
  8
0
 62
     0
 10
411.357
 20
49.5335
 30
0.0
 11
410.436
 21
49.5335
 31
0.0
  0
LINE
  8
0
 62
     0
 10
410.436
 20
49.5335
 30
0.0
 11
410.436
 21
51.259
 31
0.0
  0
LINE
  8
0
 62
     0
 10
410.436
 20
51.259
 30
0.0
 11
407.208
 21
51.259
 31
0.0
  0
LINE
  8
0
 62
     0
 10
407.208
 20
51.259
 30
0.0
 11
407.208
 21
52.0831
 31
0.0
  0
LINE
  8
0
 62
     0
 10
407.208
 20
52.0831
 30
0.0
 11
404.407
 21
52.0831
 31
0.0
  0
LINE
  8
0
 62
     0
 10
2.61965
 20
35.833
 30
0.0
 11
16.6192
 21
35.833
 31
0.0
  0
LINE
  8
0
 62
     0
 10
16.6192
 20
35.833
 30
0.0
 11
16.6192
 21
21.8336
 31
0.0
  0
LINE
  8
0
 62
     0
 10
16.6192
 20
21.8336
 30
0.0
 11
2.61965
 21
21.8336
 31
0.0
  0
LINE
  8
0
 62
     0
 10
2.61965
 20
21.8336
 30
0.0
 11
2.61965
 21
35.833
 31
0.0
  0
LINE
  8
0
 62
     0
 10
21.6697
 20
35.833
 30
0.0
 11
35.669
 21
35.833
 31
0.0
  0
LINE
  8
0
 62
     0
 10
35.669
 20
35.833
 30
0.0
 11
35.669
 21
21.8336
 31
0.0
  0
LINE
  8
0
 62
     0
 10
35.669
 20
21.8336
 30
0.0
 11
21.6697
 21
21.8336
 31
0.0
  0
LINE
  8
0
 62
     0
 10
21.6697
 20
21.8336
 30
0.0
 11
21.6697
 21
35.833
 31
0.0
  0
LINE
  8
0
 62
     0
 10
62.151
 20
35.833
 30
0.0
 11
76.1503
 21
35.833
 31
0.0
  0
LINE
  8
0
 62
     0
 10
76.1503
 20
35.833
 30
0.0
 11
76.1503
 21
21.8336
 31
0.0
  0
LINE
  8
0
 62
     0
 10
76.1503
 20
21.8336
 30
0.0
 11
62.151
 21
21.8336
 31
0.0
  0
LINE
  8
0
 62
     0
 10
62.151
 20
21.8336
 30
0.0
 11
62.151
 21
35.833
 31
0.0
  0
LINE
  8
0
 62
     0
 10
83.5822
 20
35.833
 30
0.0
 11
97.5815
 21
35.833
 31
0.0
  0
LINE
  8
0
 62
     0
 10
97.5815
 20
35.833
 30
0.0
 11
97.5815
 21
21.8336
 31
0.0
  0
LINE
  8
0
 62
     0
 10
97.5815
 20
21.8336
 30
0.0
 11
83.5822
 21
21.8336
 31
0.0
  0
LINE
  8
0
 62
     0
 10
83.5822
 20
21.8336
 30
0.0
 11
83.5822
 21
35.833
 31
0.0
  0
LINE
  8
0
 62
     0
 10
102.632
 20
35.833
 30
0.0
 11
116.632
 21
35.833
 31
0.0
  0
LINE
  8
0
 62
     0
 10
116.632
 20
35.833
 30
0.0
 11
116.632
 21
21.8336
 31
0.0
  0
LINE
  8
0
 62
     0
 10
116.632
 20
21.8336
 30
0.0
 11
102.632
 21
21.8336
 31
0.0
  0
LINE
  8
0
 62
     0
 10
102.632
 20
21.8336
 30
0.0
 11
102.632
 21
35.833
 31
0.0
  0
LINE
  8
0
 62
     0
 10
121.682
 20
35.833
 30
0.0
 11
135.682
 21
35.833
 31
0.0
  0
LINE
  8
0
 62
     0
 10
135.682
 20
35.833
 30
0.0
 11
135.682
 21
21.8336
 31
0.0
  0
LINE
  8
0
 62
     0
 10
135.682
 20
21.8336
 30
0.0
 11
121.682
 21
21.8336
 31
0.0
  0
LINE
  8
0
 62
     0
 10
121.682
 20
21.8336
 30
0.0
 11
121.682
 21
35.833
 31
0.0
  0
LINE
  8
0
 62
     0
 10
140.732
 20
35.833
 30
0.0
 11
154.732
 21
35.833
 31
0.0
  0
LINE
  8
0
 62
     0
 10
154.732
 20
35.833
 30
0.0
 11
154.732
 21
21.8336
 31
0.0
  0
LINE
  8
0
 62
     0
 10
154.732
 20
21.8336
 30
0.0
 11
140.732
 21
21.8336
 31
0.0
  0
LINE
  8
0
 62
     0
 10
140.732
 20
21.8336
 30
0.0
 11
140.732
 21
35.833
 31
0.0
  0
LINE
  8
0
 62
     0
 10
159.782
 20
35.833
 30
0.0
 11
173.782
 21
35.833
 31
0.0
  0
LINE
  8
0
 62
     0
 10
173.782
 20
35.833
 30
0.0
 11
173.782
 21
21.8336
 31
0.0
  0
LINE
  8
0
 62
     0
 10
173.782
 20
21.8336
 30
0.0
 11
159.782
 21
21.8336
 31
0.0
  0
LINE
  8
0
 62
     0
 10
159.782
 20
21.8336
 30
0.0
 11
159.782
 21
35.833
 31
0.0
  0
LINE
  8
0
 62
     0
 10
178.832
 20
35.833
 30
0.0
 11
192.832
 21
35.833
 31
0.0
  0
LINE
  8
0
 62
     0
 10
192.832
 20
35.833
 30
0.0
 11
192.832
 21
21.8336
 31
0.0
  0
LINE
  8
0
 62
     0
 10
192.832
 20
21.8336
 30
0.0
 11
178.832
 21
21.8336
 31
0.0
  0
LINE
  8
0
 62
     0
 10
178.832
 20
21.8336
 30
0.0
 11
178.832
 21
35.833
 31
0.0
  0
LINE
  8
0
 62
     0
 10
197.882
 20
35.833
 30
0.0
 11
211.882
 21
35.833
 31
0.0
  0
LINE
  8
0
 62
     0
 10
211.882
 20
35.833
 30
0.0
 11
211.882
 21
21.8336
 31
0.0
  0
LINE
  8
0
 62
     0
 10
211.882
 20
21.8336
 30
0.0
 11
197.882
 21
21.8336
 31
0.0
  0
LINE
  8
0
 62
     0
 10
197.882
 20
21.8336
 30
0.0
 11
197.882
 21
35.833
 31
0.0
  0
LINE
  8
0
 62
     0
 10
216.932
 20
35.833
 30
0.0
 11
230.932
 21
35.833
 31
0.0
  0
LINE
  8
0
 62
     0
 10
230.932
 20
35.833
 30
0.0
 11
230.932
 21
21.8336
 31
0.0
  0
LINE
  8
0
 62
     0
 10
230.932
 20
21.8336
 30
0.0
 11
216.932
 21
21.8336
 31
0.0
  0
LINE
  8
0
 62
     0
 10
216.932
 20
21.8336
 30
0.0
 11
216.932
 21
35.833
 31
0.0
  0
LINE
  8
0
 62
     0
 10
235.982
 20
35.833
 30
0.0
 11
249.982
 21
35.833
 31
0.0
  0
LINE
  8
0
 62
     0
 10
249.982
 20
35.833
 30
0.0
 11
249.982
 21
21.8336
 31
0.0
  0
LINE
  8
0
 62
     0
 10
249.982
 20
21.8336
 30
0.0
 11
235.982
 21
21.8336
 31
0.0
  0
LINE
  8
0
 62
     0
 10
235.982
 20
21.8336
 30
0.0
 11
235.982
 21
35.833
 31
0.0
  0
LINE
  8
0
 62
     0
 10
255.032
 20
35.833
 30
0.0
 11
269.032
 21
35.833
 31
0.0
  0
LINE
  8
0
 62
     0
 10
269.032
 20
35.833
 30
0.0
 11
269.032
 21
21.8336
 31
0.0
  0
LINE
  8
0
 62
     0
 10
269.032
 20
21.8336
 30
0.0
 11
255.032
 21
21.8336
 31
0.0
  0
LINE
  8
0
 62
     0
 10
255.032
 20
21.8336
 30
0.0
 11
255.032
 21
35.833
 31
0.0
  0
LINE
  8
0
 62
     0
 10
274.082
 20
35.833
 30
0.0
 11
288.082
 21
35.833
 31
0.0
  0
LINE
  8
0
 62
     0
 10
288.082
 20
35.833
 30
0.0
 11
288.082
 21
21.8336
 31
0.0
  0
LINE
  8
0
 62
     0
 10
288.082
 20
21.8336
 30
0.0
 11
274.082
 21
21.8336
 31
0.0
  0
LINE
  8
0
 62
     0
 10
274.082
 20
21.8336
 30
0.0
 11
274.082
 21
35.833
 31
0.0
  0
LINE
  8
0
 62
     0
 10
297.895
 20
35.833
 30
0.0
 11
311.894
 21
35.833
 31
0.0
  0
LINE
  8
0
 62
     0
 10
311.894
 20
35.833
 30
0.0
 11
311.894
 21
21.8336
 31
0.0
  0
LINE
  8
0
 62
     0
 10
311.894
 20
21.8336
 30
0.0
 11
297.895
 21
21.8336
 31
0.0
  0
LINE
  8
0
 62
     0
 10
297.895
 20
21.8336
 30
0.0
 11
297.895
 21
35.833
 31
0.0
  0
LINE
  8
0
 62
     0
 10
321.707
 20
35.833
 30
0.0
 11
335.707
 21
35.833
 31
0.0
  0
LINE
  8
0
 62
     0
 10
335.707
 20
35.833
 30
0.0
 11
335.707
 21
21.8336
 31
0.0
  0
LINE
  8
0
 62
     0
 10
335.707
 20
21.8336
 30
0.0
 11
321.707
 21
21.8336
 31
0.0
  0
LINE
  8
0
 62
     0
 10
321.707
 20
21.8336
 30
0.0
 11
321.707
 21
35.833
 31
0.0
  0
LINE
  8
0
 62
     0
 10
340.757
 20
35.833
 30
0.0
 11
354.757
 21
35.833
 31
0.0
  0
LINE
  8
0
 62
     0
 10
354.757
 20
35.833
 30
0.0
 11
354.757
 21
21.8336
 31
0.0
  0
LINE
  8
0
 62
     0
 10
354.757
 20
21.8336
 30
0.0
 11
340.757
 21
21.8336
 31
0.0
  0
LINE
  8
0
 62
     0
 10
340.757
 20
21.8336
 30
0.0
 11
340.757
 21
35.833
 31
0.0
  0
LINE
  8
0
 62
     0
 10
359.809
 20
35.833
 30
0.0
 11
373.807
 21
35.833
 31
0.0
  0
LINE
  8
0
 62
     0
 10
373.807
 20
35.833
 30
0.0
 11
373.807
 21
21.8336
 31
0.0
  0
LINE
  8
0
 62
     0
 10
373.807
 20
21.8336
 30
0.0
 11
359.809
 21
21.8336
 31
0.0
  0
LINE
  8
0
 62
     0
 10
359.809
 20
21.8336
 30
0.0
 11
359.809
 21
35.833
 31
0.0
  0
LINE
  8
0
 62
     0
 10
378.859
 20
35.833
 30
0.0
 11
392.857
 21
35.833
 31
0.0
  0
LINE
  8
0
 62
     0
 10
392.857
 20
35.833
 30
0.0
 11
392.857
 21
21.8336
 31
0.0
  0
LINE
  8
0
 62
     0
 10
392.857
 20
21.8336
 30
0.0
 11
378.859
 21
21.8336
 31
0.0
  0
LINE
  8
0
 62
     0
 10
378.859
 20
21.8336
 30
0.0
 11
378.859
 21
35.833
 31
0.0
  0
LINE
  8
0
 62
     0
 10
2.61965
 20
54.8831
 30
0.0
 11
16.6192
 21
54.8831
 31
0.0
  0
LINE
  8
0
 62
     0
 10
16.6192
 20
54.8831
 30
0.0
 11
16.6192
 21
40.8838
 31
0.0
  0
LINE
  8
0
 62
     0
 10
16.6192
 20
40.8838
 30
0.0
 11
2.61965
 21
40.8838
 31
0.0
  0
LINE
  8
0
 62
     0
 10
2.61965
 20
40.8838
 30
0.0
 11
2.61965
 21
54.8831
 31
0.0
  0
LINE
  8
0
 62
     0
 10
21.6697
 20
54.8831
 30
0.0
 11
35.669
 21
54.8831
 31
0.0
  0
LINE
  8
0
 62
     0
 10
35.669
 20
54.8831
 30
0.0
 11
35.669
 21
40.8838
 31
0.0
  0
LINE
  8
0
 62
     0
 10
35.669
 20
40.8838
 30
0.0
 11
21.6697
 21
40.8838
 31
0.0
  0
LINE
  8
0
 62
     0
 10
21.6697
 20
40.8838
 30
0.0
 11
21.6697
 21
54.8831
 31
0.0
  0
LINE
  8
0
 62
     0
 10
66.9121
 20
54.8831
 30
0.0
 11
80.9128
 21
54.8831
 31
0.0
  0
LINE
  8
0
 62
     0
 10
80.9128
 20
54.8831
 30
0.0
 11
80.9128
 21
40.8838
 31
0.0
  0
LINE
  8
0
 62
     0
 10
80.9128
 20
40.8838
 30
0.0
 11
66.9121
 21
40.8838
 31
0.0
  0
LINE
  8
0
 62
     0
 10
66.9121
 20
40.8838
 30
0.0
 11
66.9121
 21
54.8831
 31
0.0
  0
LINE
  8
0
 62
     0
 10
93.1072
 20
54.8831
 30
0.0
 11
107.107
 21
54.8831
 31
0.0
  0
LINE
  8
0
 62
     0
 10
107.107
 20
54.8831
 30
0.0
 11
107.107
 21
40.8838
 31
0.0
  0
LINE
  8
0
 62
     0
 10
107.107
 20
40.8838
 30
0.0
 11
93.1072
 21
40.8838
 31
0.0
  0
LINE
  8
0
 62
     0
 10
93.1072
 20
40.8838
 30
0.0
 11
93.1072
 21
54.8831
 31
0.0
  0
LINE
  8
0
 62
     0
 10
112.157
 20
54.8831
 30
0.0
 11
126.157
 21
54.8831
 31
0.0
  0
LINE
  8
0
 62
     0
 10
126.157
 20
54.8831
 30
0.0
 11
126.157
 21
40.8838
 31
0.0
  0
LINE
  8
0
 62
     0
 10
126.157
 20
40.8838
 30
0.0
 11
112.157
 21
40.8838
 31
0.0
  0
LINE
  8
0
 62
     0
 10
112.157
 20
40.8838
 30
0.0
 11
112.157
 21
54.8831
 31
0.0
  0
LINE
  8
0
 62
     0
 10
131.207
 20
54.8831
 30
0.0
 11
145.207
 21
54.8831
 31
0.0
  0
LINE
  8
0
 62
     0
 10
145.207
 20
54.8831
 30
0.0
 11
145.207
 21
40.8838
 31
0.0
  0
LINE
  8
0
 62
     0
 10
145.207
 20
40.8838
 30
0.0
 11
131.207
 21
40.8838
 31
0.0
  0
LINE
  8
0
 62
     0
 10
131.207
 20
40.8838
 30
0.0
 11
131.207
 21
54.8831
 31
0.0
  0
LINE
  8
0
 62
     0
 10
150.257
 20
54.8831
 30
0.0
 11
164.257
 21
54.8831
 31
0.0
  0
LINE
  8
0
 62
     0
 10
164.257
 20
54.8831
 30
0.0
 11
164.257
 21
40.8838
 31
0.0
  0
LINE
  8
0
 62
     0
 10
164.257
 20
40.8838
 30
0.0
 11
150.257
 21
40.8838
 31
0.0
  0
LINE
  8
0
 62
     0
 10
150.257
 20
40.8838
 30
0.0
 11
150.257
 21
54.8831
 31
0.0
  0
LINE
  8
0
 62
     0
 10
169.307
 20
54.8831
 30
0.0
 11
183.307
 21
54.8831
 31
0.0
  0
LINE
  8
0
 62
     0
 10
183.307
 20
54.8831
 30
0.0
 11
183.307
 21
40.8838
 31
0.0
  0
LINE
  8
0
 62
     0
 10
183.307
 20
40.8838
 30
0.0
 11
169.307
 21
40.8838
 31
0.0
  0
LINE
  8
0
 62
     0
 10
169.307
 20
40.8838
 30
0.0
 11
169.307
 21
54.8831
 31
0.0
  0
LINE
  8
0
 62
     0
 10
188.357
 20
54.8831
 30
0.0
 11
202.357
 21
54.8831
 31
0.0
  0
LINE
  8
0
 62
     0
 10
202.357
 20
54.8831
 30
0.0
 11
202.357
 21
40.8838
 31
0.0
  0
LINE
  8
0
 62
     0
 10
202.357
 20
40.8838
 30
0.0
 11
188.357
 21
40.8838
 31
0.0
  0
LINE
  8
0
 62
     0
 10
188.357
 20
40.8838
 30
0.0
 11
188.357
 21
54.8831
 31
0.0
  0
LINE
  8
0
 62
     0
 10
207.407
 20
54.8831
 30
0.0
 11
221.407
 21
54.8831
 31
0.0
  0
LINE
  8
0
 62
     0
 10
221.407
 20
54.8831
 30
0.0
 11
221.407
 21
40.8838
 31
0.0
  0
LINE
  8
0
 62
     0
 10
221.407
 20
40.8838
 30
0.0
 11
207.407
 21
40.8838
 31
0.0
  0
LINE
  8
0
 62
     0
 10
207.407
 20
40.8838
 30
0.0
 11
207.407
 21
54.8831
 31
0.0
  0
LINE
  8
0
 62
     0
 10
226.457
 20
54.8831
 30
0.0
 11
240.457
 21
54.8831
 31
0.0
  0
LINE
  8
0
 62
     0
 10
240.457
 20
54.8831
 30
0.0
 11
240.457
 21
40.8838
 31
0.0
  0
LINE
  8
0
 62
     0
 10
240.457
 20
40.8838
 30
0.0
 11
226.457
 21
40.8838
 31
0.0
  0
LINE
  8
0
 62
     0
 10
226.457
 20
40.8838
 30
0.0
 11
226.457
 21
54.8831
 31
0.0
  0
LINE
  8
0
 62
     0
 10
245.507
 20
54.8831
 30
0.0
 11
259.507
 21
54.8831
 31
0.0
  0
LINE
  8
0
 62
     0
 10
259.507
 20
54.8831
 30
0.0
 11
259.507
 21
40.8838
 31
0.0
  0
LINE
  8
0
 62
     0
 10
259.507
 20
40.8838
 30
0.0
 11
245.507
 21
40.8838
 31
0.0
  0
LINE
  8
0
 62
     0
 10
245.507
 20
40.8838
 30
0.0
 11
245.507
 21
54.8831
 31
0.0
  0
LINE
  8
0
 62
     0
 10
264.557
 20
54.8831
 30
0.0
 11
278.557
 21
54.8831
 31
0.0
  0
LINE
  8
0
 62
     0
 10
278.557
 20
54.8831
 30
0.0
 11
278.557
 21
40.8838
 31
0.0
  0
LINE
  8
0
 62
     0
 10
278.557
 20
40.8838
 30
0.0
 11
264.557
 21
40.8838
 31
0.0
  0
LINE
  8
0
 62
     0
 10
264.557
 20
40.8838
 30
0.0
 11
264.557
 21
54.8831
 31
0.0
  0
LINE
  8
0
 62
     0
 10
283.607
 20
54.8831
 30
0.0
 11
297.607
 21
54.8831
 31
0.0
  0
LINE
  8
0
 62
     0
 10
297.607
 20
54.8831
 30
0.0
 11
297.607
 21
40.8838
 31
0.0
  0
LINE
  8
0
 62
     0
 10
297.607
 20
40.8838
 30
0.0
 11
283.607
 21
40.8838
 31
0.0
  0
LINE
  8
0
 62
     0
 10
283.607
 20
40.8838
 30
0.0
 11
283.607
 21
54.8831
 31
0.0
  0
LINE
  8
0
 62
     0
 10
302.657
 20
54.8831
 30
0.0
 11
316.657
 21
54.8831
 31
0.0
  0
LINE
  8
0
 62
     0
 10
316.657
 20
54.8831
 30
0.0
 11
316.657
 21
40.8838
 31
0.0
  0
LINE
  8
0
 62
     0
 10
316.657
 20
40.8838
 30
0.0
 11
302.657
 21
40.8838
 31
0.0
  0
LINE
  8
0
 62
     0
 10
302.657
 20
40.8838
 30
0.0
 11
302.657
 21
54.8831
 31
0.0
  0
LINE
  8
0
 62
     0
 10
340.757
 20
54.8831
 30
0.0
 11
354.757
 21
54.8831
 31
0.0
  0
LINE
  8
0
 62
     0
 10
354.757
 20
54.8831
 30
0.0
 11
354.757
 21
40.8838
 31
0.0
  0
LINE
  8
0
 62
     0
 10
354.757
 20
40.8838
 30
0.0
 11
340.757
 21
40.8838
 31
0.0
  0
LINE
  8
0
 62
     0
 10
340.757
 20
40.8838
 30
0.0
 11
340.757
 21
54.8831
 31
0.0
  0
LINE
  8
0
 62
     0
 10
359.809
 20
54.8831
 30
0.0
 11
373.807
 21
54.8831
 31
0.0
  0
LINE
  8
0
 62
     0
 10
373.807
 20
54.8831
 30
0.0
 11
373.807
 21
40.8838
 31
0.0
  0
LINE
  8
0
 62
     0
 10
373.807
 20
40.8838
 30
0.0
 11
359.809
 21
40.8838
 31
0.0
  0
LINE
  8
0
 62
     0
 10
359.809
 20
40.8838
 30
0.0
 11
359.809
 21
54.8831
 31
0.0
  0
LINE
  8
0
 62
     0
 10
378.859
 20
54.8831
 30
0.0
 11
392.857
 21
54.8831
 31
0.0
  0
LINE
  8
0
 62
     0
 10
392.857
 20
54.8831
 30
0.0
 11
392.857
 21
40.8838
 31
0.0
  0
LINE
  8
0
 62
     0
 10
392.857
 20
40.8838
 30
0.0
 11
378.859
 21
40.8838
 31
0.0
  0
LINE
  8
0
 62
     0
 10
378.859
 20
40.8838
 30
0.0
 11
378.859
 21
54.8831
 31
0.0
  0
LINE
  8
0
 62
     0
 10
328.206
 20
73.5087
 30
0.0
 11
328.206
 21
72.6832
 31
0.0
  0
LINE
  8
0
 62
     0
 10
328.206
 20
72.6832
 30
0.0
 11
321.936
 21
72.6832
 31
0.0
  0
LINE
  8
0
 62
     0
 10
321.936
 20
72.6832
 30
0.0
 11
321.936
 21
70.9581
 31
0.0
  0
LINE
  8
0
 62
     0
 10
321.936
 20
70.9581
 30
0.0
 11
320.956
 21
70.9581
 31
0.0
  0
LINE
  8
0
 62
     0
 10
320.956
 20
70.9581
 30
0.0
 11
320.956
 21
67.6589
 31
0.0
  0
LINE
  8
0
 62
     0
 10
320.956
 20
67.6589
 30
0.0
 11
321.936
 21
67.6589
 31
0.0
  0
LINE
  8
0
 62
     0
 10
321.936
 20
67.6589
 30
0.0
 11
321.936
 21
65.9335
 31
0.0
  0
LINE
  8
0
 62
     0
 10
321.936
 20
65.9335
 30
0.0
 11
326.406
 21
65.9335
 31
0.0
  0
LINE
  8
0
 62
     0
 10
326.406
 20
65.9335
 30
0.0
 11
326.406
 21
64.4081
 31
0.0
  0
LINE
  8
0
 62
     0
 10
326.406
 20
64.4081
 30
0.0
 11
321.707
 21
64.4081
 31
0.0
  0
LINE
  8
0
 62
     0
 10
321.707
 20
64.4081
 30
0.0
 11
321.707
 21
50.4088
 31
0.0
  0
LINE
  8
0
 62
     0
 10
321.707
 20
50.4088
 30
0.0
 11
326.406
 21
50.4088
 31
0.0
  0
LINE
  8
0
 62
     0
 10
326.406
 20
50.4088
 30
0.0
 11
326.406
 21
48.883
 31
0.0
  0
LINE
  8
0
 62
     0
 10
326.406
 20
48.883
 30
0.0
 11
321.936
 21
48.883
 31
0.0
  0
LINE
  8
0
 62
     0
 10
321.936
 20
48.883
 30
0.0
 11
321.936
 21
47.1579
 31
0.0
  0
LINE
  8
0
 62
     0
 10
321.936
 20
47.1579
 30
0.0
 11
320.956
 21
47.1579
 31
0.0
  0
LINE
  8
0
 62
     0
 10
320.956
 20
47.1579
 30
0.0
 11
320.956
 21
43.8587
 31
0.0
  0
LINE
  8
0
 62
     0
 10
320.956
 20
43.8587
 30
0.0
 11
321.936
 21
43.8587
 31
0.0
  0
LINE
  8
0
 62
     0
 10
321.936
 20
43.8587
 30
0.0
 11
321.936
 21
42.1337
 31
0.0
  0
LINE
  8
0
 62
     0
 10
321.936
 20
42.1337
 30
0.0
 11
328.206
 21
42.1337
 31
0.0
  0
LINE
  8
0
 62
     0
 10
328.206
 20
42.1337
 30
0.0
 11
328.206
 21
41.3082
 31
0.0
  0
LINE
  8
0
 62
     0
 10
328.206
 20
41.3082
 30
0.0
 11
331.006
 21
41.3082
 31
0.0
  0
LINE
  8
0
 62
     0
 10
331.006
 20
41.3082
 30
0.0
 11
331.006
 21
42.1337
 31
0.0
  0
LINE
  8
0
 62
     0
 10
331.006
 20
42.1337
 30
0.0
 11
334.236
 21
42.1337
 31
0.0
  0
LINE
  8
0
 62
     0
 10
334.236
 20
42.1337
 30
0.0
 11
334.236
 21
43.8587
 31
0.0
  0
LINE
  8
0
 62
     0
 10
334.236
 20
43.8587
 30
0.0
 11
335.157
 21
43.8587
 31
0.0
  0
LINE
  8
0
 62
     0
 10
335.157
 20
43.8587
 30
0.0
 11
335.157
 21
47.1579
 31
0.0
  0
LINE
  8
0
 62
     0
 10
335.157
 20
47.1579
 30
0.0
 11
334.236
 21
47.1579
 31
0.0
  0
LINE
  8
0
 62
     0
 10
334.236
 20
47.1579
 30
0.0
 11
334.236
 21
48.883
 31
0.0
  0
LINE
  8
0
 62
     0
 10
334.236
 20
48.883
 30
0.0
 11
331.006
 21
48.883
 31
0.0
  0
LINE
  8
0
 62
     0
 10
331.006
 20
48.883
 30
0.0
 11
331.006
 21
50.4088
 31
0.0
  0
LINE
  8
0
 62
     0
 10
331.006
 20
50.4088
 30
0.0
 11
335.707
 21
50.4088
 31
0.0
  0
LINE
  8
0
 62
     0
 10
335.707
 20
50.4088
 30
0.0
 11
335.707
 21
64.4081
 31
0.0
  0
LINE
  8
0
 62
     0
 10
335.707
 20
64.4081
 30
0.0
 11
331.006
 21
64.4081
 31
0.0
  0
LINE
  8
0
 62
     0
 10
331.006
 20
64.4081
 30
0.0
 11
331.006
 21
65.9335
 31
0.0
  0
LINE
  8
0
 62
     0
 10
331.006
 20
65.9335
 30
0.0
 11
334.236
 21
65.9335
 31
0.0
  0
LINE
  8
0
 62
     0
 10
334.236
 20
65.9335
 30
0.0
 11
334.236
 21
67.6589
 31
0.0
  0
LINE
  8
0
 62
     0
 10
334.236
 20
67.6589
 30
0.0
 11
335.157
 21
67.6589
 31
0.0
  0
LINE
  8
0
 62
     0
 10
335.157
 20
67.6589
 30
0.0
 11
335.157
 21
70.9581
 31
0.0
  0
LINE
  8
0
 62
     0
 10
335.157
 20
70.9581
 30
0.0
 11
334.236
 21
70.9581
 31
0.0
  0
LINE
  8
0
 62
     0
 10
334.236
 20
70.9581
 30
0.0
 11
334.236
 21
72.6832
 31
0.0
  0
LINE
  8
0
 62
     0
 10
334.236
 20
72.6832
 30
0.0
 11
331.006
 21
72.6832
 31
0.0
  0
LINE
  8
0
 62
     0
 10
331.006
 20
72.6832
 30
0.0
 11
331.006
 21
73.5087
 31
0.0
  0
LINE
  8
0
 62
     0
 10
331.006
 20
73.5087
 30
0.0
 11
328.206
 21
73.5087
 31
0.0
  0
LINE
  8
0
 62
     0
 10
2.61965
 20
73.9331
 30
0.0
 11
16.6192
 21
73.9331
 31
0.0
  0
LINE
  8
0
 62
     0
 10
16.6192
 20
73.9331
 30
0.0
 11
16.6192
 21
59.9338
 31
0.0
  0
LINE
  8
0
 62
     0
 10
16.6192
 20
59.9338
 30
0.0
 11
2.61965
 21
59.9338
 31
0.0
  0
LINE
  8
0
 62
     0
 10
2.61965
 20
59.9338
 30
0.0
 11
2.61965
 21
73.9331
 31
0.0
  0
LINE
  8
0
 62
     0
 10
21.6697
 20
73.9331
 30
0.0
 11
35.669
 21
73.9331
 31
0.0
  0
LINE
  8
0
 62
     0
 10
35.669
 20
73.9331
 30
0.0
 11
35.669
 21
59.9338
 31
0.0
  0
LINE
  8
0
 62
     0
 10
35.669
 20
59.9338
 30
0.0
 11
21.6697
 21
59.9338
 31
0.0
  0
LINE
  8
0
 62
     0
 10
21.6697
 20
59.9338
 30
0.0
 11
21.6697
 21
73.9331
 31
0.0
  0
LINE
  8
0
 62
     0
 10
64.5322
 20
73.9331
 30
0.0
 11
78.5315
 21
73.9331
 31
0.0
  0
LINE
  8
0
 62
     0
 10
78.5315
 20
73.9331
 30
0.0
 11
78.5315
 21
59.9338
 31
0.0
  0
LINE
  8
0
 62
     0
 10
78.5315
 20
59.9338
 30
0.0
 11
64.5322
 21
59.9338
 31
0.0
  0
LINE
  8
0
 62
     0
 10
64.5322
 20
59.9338
 30
0.0
 11
64.5322
 21
73.9331
 31
0.0
  0
LINE
  8
0
 62
     0
 10
88.3447
 20
73.9331
 30
0.0
 11
102.344
 21
73.9331
 31
0.0
  0
LINE
  8
0
 62
     0
 10
102.344
 20
73.9331
 30
0.0
 11
102.344
 21
59.9338
 31
0.0
  0
LINE
  8
0
 62
     0
 10
102.344
 20
59.9338
 30
0.0
 11
88.3447
 21
59.9338
 31
0.0
  0
LINE
  8
0
 62
     0
 10
88.3447
 20
59.9338
 30
0.0
 11
88.3447
 21
73.9331
 31
0.0
  0
LINE
  8
0
 62
     0
 10
107.395
 20
73.9331
 30
0.0
 11
121.394
 21
73.9331
 31
0.0
  0
LINE
  8
0
 62
     0
 10
121.394
 20
73.9331
 30
0.0
 11
121.394
 21
59.9338
 31
0.0
  0
LINE
  8
0
 62
     0
 10
121.394
 20
59.9338
 30
0.0
 11
107.395
 21
59.9338
 31
0.0
  0
LINE
  8
0
 62
     0
 10
107.395
 20
59.9338
 30
0.0
 11
107.395
 21
73.9331
 31
0.0
  0
LINE
  8
0
 62
     0
 10
126.445
 20
73.9331
 30
0.0
 11
140.444
 21
73.9331
 31
0.0
  0
LINE
  8
0
 62
     0
 10
140.444
 20
73.9331
 30
0.0
 11
140.444
 21
59.9338
 31
0.0
  0
LINE
  8
0
 62
     0
 10
140.444
 20
59.9338
 30
0.0
 11
126.445
 21
59.9338
 31
0.0
  0
LINE
  8
0
 62
     0
 10
126.445
 20
59.9338
 30
0.0
 11
126.445
 21
73.9331
 31
0.0
  0
LINE
  8
0
 62
     0
 10
145.495
 20
73.9331
 30
0.0
 11
159.494
 21
73.9331
 31
0.0
  0
LINE
  8
0
 62
     0
 10
159.494
 20
73.9331
 30
0.0
 11
159.494
 21
59.9338
 31
0.0
  0
LINE
  8
0
 62
     0
 10
159.494
 20
59.9338
 30
0.0
 11
145.495
 21
59.9338
 31
0.0
  0
LINE
  8
0
 62
     0
 10
145.495
 20
59.9338
 30
0.0
 11
145.495
 21
73.9331
 31
0.0
  0
LINE
  8
0
 62
     0
 10
164.545
 20
73.9331
 30
0.0
 11
178.544
 21
73.9331
 31
0.0
  0
LINE
  8
0
 62
     0
 10
178.544
 20
73.9331
 30
0.0
 11
178.544
 21
59.9338
 31
0.0
  0
LINE
  8
0
 62
     0
 10
178.544
 20
59.9338
 30
0.0
 11
164.545
 21
59.9338
 31
0.0
  0
LINE
  8
0
 62
     0
 10
164.545
 20
59.9338
 30
0.0
 11
164.545
 21
73.9331
 31
0.0
  0
LINE
  8
0
 62
     0
 10
183.595
 20
73.9331
 30
0.0
 11
197.594
 21
73.9331
 31
0.0
  0
LINE
  8
0
 62
     0
 10
197.594
 20
73.9331
 30
0.0
 11
197.594
 21
59.9338
 31
0.0
  0
LINE
  8
0
 62
     0
 10
197.594
 20
59.9338
 30
0.0
 11
183.595
 21
59.9338
 31
0.0
  0
LINE
  8
0
 62
     0
 10
183.595
 20
59.9338
 30
0.0
 11
183.595
 21
73.9331
 31
0.0
  0
LINE
  8
0
 62
     0
 10
202.645
 20
73.9331
 30
0.0
 11
216.644
 21
73.9331
 31
0.0
  0
LINE
  8
0
 62
     0
 10
216.644
 20
73.9331
 30
0.0
 11
216.644
 21
59.9338
 31
0.0
  0
LINE
  8
0
 62
     0
 10
216.644
 20
59.9338
 30
0.0
 11
202.645
 21
59.9338
 31
0.0
  0
LINE
  8
0
 62
     0
 10
202.645
 20
59.9338
 30
0.0
 11
202.645
 21
73.9331
 31
0.0
  0
LINE
  8
0
 62
     0
 10
221.695
 20
73.9331
 30
0.0
 11
235.694
 21
73.9331
 31
0.0
  0
LINE
  8
0
 62
     0
 10
235.694
 20
73.9331
 30
0.0
 11
235.694
 21
59.9338
 31
0.0
  0
LINE
  8
0
 62
     0
 10
235.694
 20
59.9338
 30
0.0
 11
221.695
 21
59.9338
 31
0.0
  0
LINE
  8
0
 62
     0
 10
221.695
 20
59.9338
 30
0.0
 11
221.695
 21
73.9331
 31
0.0
  0
LINE
  8
0
 62
     0
 10
240.745
 20
73.9331
 30
0.0
 11
254.744
 21
73.9331
 31
0.0
  0
LINE
  8
0
 62
     0
 10
254.744
 20
73.9331
 30
0.0
 11
254.744
 21
59.9338
 31
0.0
  0
LINE
  8
0
 62
     0
 10
254.744
 20
59.9338
 30
0.0
 11
240.745
 21
59.9338
 31
0.0
  0
LINE
  8
0
 62
     0
 10
240.745
 20
59.9338
 30
0.0
 11
240.745
 21
73.9331
 31
0.0
  0
LINE
  8
0
 62
     0
 10
259.795
 20
73.9331
 30
0.0
 11
273.794
 21
73.9331
 31
0.0
  0
LINE
  8
0
 62
     0
 10
273.794
 20
73.9331
 30
0.0
 11
273.794
 21
59.9338
 31
0.0
  0
LINE
  8
0
 62
     0
 10
273.794
 20
59.9338
 30
0.0
 11
259.795
 21
59.9338
 31
0.0
  0
LINE
  8
0
 62
     0
 10
259.795
 20
59.9338
 30
0.0
 11
259.795
 21
73.9331
 31
0.0
  0
LINE
  8
0
 62
     0
 10
278.845
 20
73.9331
 30
0.0
 11
292.844
 21
73.9331
 31
0.0
  0
LINE
  8
0
 62
     0
 10
292.844
 20
73.9331
 30
0.0
 11
292.844
 21
59.9338
 31
0.0
  0
LINE
  8
0
 62
     0
 10
292.844
 20
59.9338
 30
0.0
 11
278.845
 21
59.9338
 31
0.0
  0
LINE
  8
0
 62
     0
 10
278.845
 20
59.9338
 30
0.0
 11
278.845
 21
73.9331
 31
0.0
  0
LINE
  8
0
 62
     0
 10
300.276
 20
73.9331
 30
0.0
 11
314.275
 21
73.9331
 31
0.0
  0
LINE
  8
0
 62
     0
 10
314.275
 20
73.9331
 30
0.0
 11
314.275
 21
59.9338
 31
0.0
  0
LINE
  8
0
 62
     0
 10
314.275
 20
59.9338
 30
0.0
 11
300.276
 21
59.9338
 31
0.0
  0
LINE
  8
0
 62
     0
 10
300.276
 20
59.9338
 30
0.0
 11
300.276
 21
73.9331
 31
0.0
  0
LINE
  8
0
 62
     0
 10
340.757
 20
73.9331
 30
0.0
 11
354.757
 21
73.9331
 31
0.0
  0
LINE
  8
0
 62
     0
 10
354.757
 20
73.9331
 30
0.0
 11
354.757
 21
59.9338
 31
0.0
  0
LINE
  8
0
 62
     0
 10
354.757
 20
59.9338
 30
0.0
 11
340.757
 21
59.9338
 31
0.0
  0
LINE
  8
0
 62
     0
 10
340.757
 20
59.9338
 30
0.0
 11
340.757
 21
73.9331
 31
0.0
  0
LINE
  8
0
 62
     0
 10
359.809
 20
73.9331
 30
0.0
 11
373.807
 21
73.9331
 31
0.0
  0
LINE
  8
0
 62
     0
 10
373.807
 20
73.9331
 30
0.0
 11
373.807
 21
59.9338
 31
0.0
  0
LINE
  8
0
 62
     0
 10
373.807
 20
59.9338
 30
0.0
 11
359.809
 21
59.9338
 31
0.0
  0
LINE
  8
0
 62
     0
 10
359.809
 20
59.9338
 30
0.0
 11
359.809
 21
73.9331
 31
0.0
  0
LINE
  8
0
 62
     0
 10
378.859
 20
73.9331
 30
0.0
 11
392.857
 21
73.9331
 31
0.0
  0
LINE
  8
0
 62
     0
 10
392.857
 20
73.9331
 30
0.0
 11
392.857
 21
59.9338
 31
0.0
  0
LINE
  8
0
 62
     0
 10
392.857
 20
59.9338
 30
0.0
 11
378.859
 21
59.9338
 31
0.0
  0
LINE
  8
0
 62
     0
 10
378.859
 20
59.9338
 30
0.0
 11
378.859
 21
73.9331
 31
0.0
  0
LINE
  8
0
 62
     0
 10
397.909
 20
73.9331
 30
0.0
 11
411.907
 21
73.9331
 31
0.0
  0
LINE
  8
0
 62
     0
 10
411.907
 20
73.9331
 30
0.0
 11
411.907
 21
59.9338
 31
0.0
  0
LINE
  8
0
 62
     0
 10
411.907
 20
59.9338
 30
0.0
 11
397.909
 21
59.9338
 31
0.0
  0
LINE
  8
0
 62
     0
 10
397.909
 20
59.9338
 30
0.0
 11
397.909
 21
73.9331
 31
0.0
  0
LINE
  8
0
 62
     0
 10
350.282
 20
92.9831
 30
0.0
 11
350.282
 21
88.2826
 31
0.0
  0
LINE
  8
0
 62
     0
 10
350.282
 20
88.2826
 30
0.0
 11
348.757
 21
88.2826
 31
0.0
  0
LINE
  8
0
 62
     0
 10
348.757
 20
88.2826
 30
0.0
 11
348.757
 21
91.5127
 31
0.0
  0
LINE
  8
0
 62
     0
 10
348.757
 20
91.5127
 30
0.0
 11
347.031
 21
91.5127
 31
0.0
  0
LINE
  8
0
 62
     0
 10
347.031
 20
91.5127
 30
0.0
 11
347.031
 21
92.4348
 31
0.0
  0
LINE
  8
0
 62
     0
 10
347.031
 20
92.4348
 30
0.0
 11
343.731
 21
92.4348
 31
0.0
  0
LINE
  8
0
 62
     0
 10
343.731
 20
92.4348
 30
0.0
 11
343.731
 21
91.5127
 31
0.0
  0
LINE
  8
0
 62
     0
 10
343.731
 20
91.5127
 30
0.0
 11
342.007
 21
91.5127
 31
0.0
  0
LINE
  8
0
 62
     0
 10
342.007
 20
91.5127
 30
0.0
 11
342.007
 21
88.2826
 31
0.0
  0
LINE
  8
0
 62
     0
 10
342.007
 20
88.2826
 30
0.0
 11
341.182
 21
88.2826
 31
0.0
  0
LINE
  8
0
 62
     0
 10
341.182
 20
88.2826
 30
0.0
 11
341.182
 21
85.4837
 31
0.0
  0
LINE
  8
0
 62
     0
 10
341.182
 20
85.4837
 30
0.0
 11
342.007
 21
85.4837
 31
0.0
  0
LINE
  8
0
 62
     0
 10
342.007
 20
85.4837
 30
0.0
 11
342.007
 21
79.2138
 31
0.0
  0
LINE
  8
0
 62
     0
 10
342.007
 20
79.2138
 30
0.0
 11
343.731
 21
79.2138
 31
0.0
  0
LINE
  8
0
 62
     0
 10
343.731
 20
79.2138
 30
0.0
 11
343.731
 21
78.2327
 31
0.0
  0
LINE
  8
0
 62
     0
 10
343.731
 20
78.2327
 30
0.0
 11
347.031
 21
78.2327
 31
0.0
  0
LINE
  8
0
 62
     0
 10
347.031
 20
78.2327
 30
0.0
 11
347.031
 21
79.2138
 31
0.0
  0
LINE
  8
0
 62
     0
 10
347.031
 20
79.2138
 30
0.0
 11
348.757
 21
79.2138
 31
0.0
  0
LINE
  8
0
 62
     0
 10
348.757
 20
79.2138
 30
0.0
 11
348.757
 21
83.6828
 31
0.0
  0
LINE
  8
0
 62
     0
 10
348.757
 20
83.6828
 30
0.0
 11
350.282
 21
83.6828
 31
0.0
  0
LINE
  8
0
 62
     0
 10
350.282
 20
83.6828
 30
0.0
 11
350.282
 21
78.9838
 31
0.0
  0
LINE
  8
0
 62
     0
 10
350.282
 20
78.9838
 30
0.0
 11
364.282
 21
78.9838
 31
0.0
  0
LINE
  8
0
 62
     0
 10
364.282
 20
78.9838
 30
0.0
 11
364.282
 21
83.6828
 31
0.0
  0
LINE
  8
0
 62
     0
 10
364.282
 20
83.6828
 30
0.0
 11
365.806
 21
83.6828
 31
0.0
  0
LINE
  8
0
 62
     0
 10
365.806
 20
83.6828
 30
0.0
 11
365.806
 21
79.2138
 31
0.0
  0
LINE
  8
0
 62
     0
 10
365.806
 20
79.2138
 30
0.0
 11
367.531
 21
79.2138
 31
0.0
  0
LINE
  8
0
 62
     0
 10
367.531
 20
79.2138
 30
0.0
 11
367.531
 21
78.2327
 31
0.0
  0
LINE
  8
0
 62
     0
 10
367.531
 20
78.2327
 30
0.0
 11
370.833
 21
78.2327
 31
0.0
  0
LINE
  8
0
 62
     0
 10
370.833
 20
78.2327
 30
0.0
 11
370.833
 21
79.2138
 31
0.0
  0
LINE
  8
0
 62
     0
 10
370.833
 20
79.2138
 30
0.0
 11
372.558
 21
79.2138
 31
0.0
  0
LINE
  8
0
 62
     0
 10
372.558
 20
79.2138
 30
0.0
 11
372.558
 21
85.4837
 31
0.0
  0
LINE
  8
0
 62
     0
 10
372.558
 20
85.4837
 30
0.0
 11
373.38
 21
85.4837
 31
0.0
  0
LINE
  8
0
 62
     0
 10
373.38
 20
85.4837
 30
0.0
 11
373.38
 21
88.2826
 31
0.0
  0
LINE
  8
0
 62
     0
 10
373.38
 20
88.2826
 30
0.0
 11
372.558
 21
88.2826
 31
0.0
  0
LINE
  8
0
 62
     0
 10
372.558
 20
88.2826
 30
0.0
 11
372.558
 21
91.5127
 31
0.0
  0
LINE
  8
0
 62
     0
 10
372.558
 20
91.5127
 30
0.0
 11
370.833
 21
91.5127
 31
0.0
  0
LINE
  8
0
 62
     0
 10
370.833
 20
91.5127
 30
0.0
 11
370.833
 21
92.4348
 31
0.0
  0
LINE
  8
0
 62
     0
 10
370.833
 20
92.4348
 30
0.0
 11
367.531
 21
92.4348
 31
0.0
  0
LINE
  8
0
 62
     0
 10
367.531
 20
92.4348
 30
0.0
 11
367.531
 21
91.5127
 31
0.0
  0
LINE
  8
0
 62
     0
 10
367.531
 20
91.5127
 30
0.0
 11
365.806
 21
91.5127
 31
0.0
  0
LINE
  8
0
 62
     0
 10
365.806
 20
91.5127
 30
0.0
 11
365.806
 21
88.2826
 31
0.0
  0
LINE
  8
0
 62
     0
 10
365.806
 20
88.2826
 30
0.0
 11
364.282
 21
88.2826
 31
0.0
  0
LINE
  8
0
 62
     0
 10
364.282
 20
88.2826
 30
0.0
 11
364.282
 21
92.9831
 31
0.0
  0
LINE
  8
0
 62
     0
 10
364.282
 20
92.9831
 30
0.0
 11
350.282
 21
92.9831
 31
0.0
  0
LINE
  8
0
 62
     0
 10
388.384
 20
92.9831
 30
0.0
 11
388.384
 21
88.2826
 31
0.0
  0
LINE
  8
0
 62
     0
 10
388.384
 20
88.2826
 30
0.0
 11
386.856
 21
88.2826
 31
0.0
  0
LINE
  8
0
 62
     0
 10
386.856
 20
88.2826
 30
0.0
 11
386.856
 21
91.5127
 31
0.0
  0
LINE
  8
0
 62
     0
 10
386.856
 20
91.5127
 30
0.0
 11
385.131
 21
91.5127
 31
0.0
  0
LINE
  8
0
 62
     0
 10
385.131
 20
91.5127
 30
0.0
 11
385.131
 21
92.4348
 31
0.0
  0
LINE
  8
0
 62
     0
 10
385.131
 20
92.4348
 30
0.0
 11
381.833
 21
92.4348
 31
0.0
  0
LINE
  8
0
 62
     0
 10
381.833
 20
92.4348
 30
0.0
 11
381.833
 21
91.5127
 31
0.0
  0
LINE
  8
0
 62
     0
 10
381.833
 20
91.5127
 30
0.0
 11
380.107
 21
91.5127
 31
0.0
  0
LINE
  8
0
 62
     0
 10
380.107
 20
91.5127
 30
0.0
 11
380.107
 21
88.2826
 31
0.0
  0
LINE
  8
0
 62
     0
 10
380.107
 20
88.2826
 30
0.0
 11
379.282
 21
88.2826
 31
0.0
  0
LINE
  8
0
 62
     0
 10
379.282
 20
88.2826
 30
0.0
 11
379.282
 21
85.4837
 31
0.0
  0
LINE
  8
0
 62
     0
 10
379.282
 20
85.4837
 30
0.0
 11
380.107
 21
85.4837
 31
0.0
  0
LINE
  8
0
 62
     0
 10
380.107
 20
85.4837
 30
0.0
 11
380.107
 21
79.2138
 31
0.0
  0
LINE
  8
0
 62
     0
 10
380.107
 20
79.2138
 30
0.0
 11
381.833
 21
79.2138
 31
0.0
  0
LINE
  8
0
 62
     0
 10
381.833
 20
79.2138
 30
0.0
 11
381.833
 21
78.2327
 31
0.0
  0
LINE
  8
0
 62
     0
 10
381.833
 20
78.2327
 30
0.0
 11
385.131
 21
78.2327
 31
0.0
  0
LINE
  8
0
 62
     0
 10
385.131
 20
78.2327
 30
0.0
 11
385.131
 21
79.2138
 31
0.0
  0
LINE
  8
0
 62
     0
 10
385.131
 20
79.2138
 30
0.0
 11
386.856
 21
79.2138
 31
0.0
  0
LINE
  8
0
 62
     0
 10
386.856
 20
79.2138
 30
0.0
 11
386.856
 21
83.6828
 31
0.0
  0
LINE
  8
0
 62
     0
 10
386.856
 20
83.6828
 30
0.0
 11
388.384
 21
83.6828
 31
0.0
  0
LINE
  8
0
 62
     0
 10
388.384
 20
83.6828
 30
0.0
 11
388.384
 21
78.9838
 31
0.0
  0
LINE
  8
0
 62
     0
 10
388.384
 20
78.9838
 30
0.0
 11
402.382
 21
78.9838
 31
0.0
  0
LINE
  8
0
 62
     0
 10
402.382
 20
78.9838
 30
0.0
 11
402.382
 21
83.6828
 31
0.0
  0
LINE
  8
0
 62
     0
 10
402.382
 20
83.6828
 30
0.0
 11
403.906
 21
83.6828
 31
0.0
  0
LINE
  8
0
 62
     0
 10
403.906
 20
83.6828
 30
0.0
 11
403.906
 21
79.2138
 31
0.0
  0
LINE
  8
0
 62
     0
 10
403.906
 20
79.2138
 30
0.0
 11
405.631
 21
79.2138
 31
0.0
  0
LINE
  8
0
 62
     0
 10
405.631
 20
79.2138
 30
0.0
 11
405.631
 21
78.2327
 31
0.0
  0
LINE
  8
0
 62
     0
 10
405.631
 20
78.2327
 30
0.0
 11
408.933
 21
78.2327
 31
0.0
  0
LINE
  8
0
 62
     0
 10
408.933
 20
78.2327
 30
0.0
 11
408.933
 21
79.2138
 31
0.0
  0
LINE
  8
0
 62
     0
 10
408.933
 20
79.2138
 30
0.0
 11
410.658
 21
79.2138
 31
0.0
  0
LINE
  8
0
 62
     0
 10
410.658
 20
79.2138
 30
0.0
 11
410.658
 21
85.4837
 31
0.0
  0
LINE
  8
0
 62
     0
 10
410.658
 20
85.4837
 30
0.0
 11
411.48
 21
85.4837
 31
0.0
  0
LINE
  8
0
 62
     0
 10
411.48
 20
85.4837
 30
0.0
 11
411.48
 21
88.2826
 31
0.0
  0
LINE
  8
0
 62
     0
 10
411.48
 20
88.2826
 30
0.0
 11
410.658
 21
88.2826
 31
0.0
  0
LINE
  8
0
 62
     0
 10
410.658
 20
88.2826
 30
0.0
 11
410.658
 21
91.5127
 31
0.0
  0
LINE
  8
0
 62
     0
 10
410.658
 20
91.5127
 30
0.0
 11
408.933
 21
91.5127
 31
0.0
  0
LINE
  8
0
 62
     0
 10
408.933
 20
91.5127
 30
0.0
 11
408.933
 21
92.4348
 31
0.0
  0
LINE
  8
0
 62
     0
 10
408.933
 20
92.4348
 30
0.0
 11
405.631
 21
92.4348
 31
0.0
  0
LINE
  8
0
 62
     0
 10
405.631
 20
92.4348
 30
0.0
 11
405.631
 21
91.5127
 31
0.0
  0
LINE
  8
0
 62
     0
 10
405.631
 20
91.5127
 30
0.0
 11
403.906
 21
91.5127
 31
0.0
  0
LINE
  8
0
 62
     0
 10
403.906
 20
91.5127
 30
0.0
 11
403.906
 21
88.2826
 31
0.0
  0
LINE
  8
0
 62
     0
 10
403.906
 20
88.2826
 30
0.0
 11
402.382
 21
88.2826
 31
0.0
  0
LINE
  8
0
 62
     0
 10
402.382
 20
88.2826
 30
0.0
 11
402.382
 21
92.9831
 31
0.0
  0
LINE
  8
0
 62
     0
 10
402.382
 20
92.9831
 30
0.0
 11
388.384
 21
92.9831
 31
0.0
  0
LINE
  8
0
 62
     0
 10
2.61965
 20
92.9831
 30
0.0
 11
16.6192
 21
92.9831
 31
0.0
  0
LINE
  8
0
 62
     0
 10
16.6192
 20
92.9831
 30
0.0
 11
16.6192
 21
78.9838
 31
0.0
  0
LINE
  8
0
 62
     0
 10
16.6192
 20
78.9838
 30
0.0
 11
2.61965
 21
78.9838
 31
0.0
  0
LINE
  8
0
 62
     0
 10
2.61965
 20
78.9838
 30
0.0
 11
2.61965
 21
92.9831
 31
0.0
  0
LINE
  8
0
 62
     0
 10
21.6697
 20
92.9831
 30
0.0
 11
35.669
 21
92.9831
 31
0.0
  0
LINE
  8
0
 62
     0
 10
35.669
 20
92.9831
 30
0.0
 11
35.669
 21
78.9838
 31
0.0
  0
LINE
  8
0
 62
     0
 10
35.669
 20
78.9838
 30
0.0
 11
21.6697
 21
78.9838
 31
0.0
  0
LINE
  8
0
 62
     0
 10
21.6697
 20
78.9838
 30
0.0
 11
21.6697
 21
92.9831
 31
0.0
  0
LINE
  8
0
 62
     0
 10
59.7697
 20
92.9831
 30
0.0
 11
73.769
 21
92.9831
 31
0.0
  0
LINE
  8
0
 62
     0
 10
73.769
 20
92.9831
 30
0.0
 11
73.769
 21
78.9838
 31
0.0
  0
LINE
  8
0
 62
     0
 10
73.769
 20
78.9838
 30
0.0
 11
59.7697
 21
78.9838
 31
0.0
  0
LINE
  8
0
 62
     0
 10
59.7697
 20
78.9838
 30
0.0
 11
59.7697
 21
92.9831
 31
0.0
  0
LINE
  8
0
 62
     0
 10
78.8197
 20
92.9831
 30
0.0
 11
92.819
 21
92.9831
 31
0.0
  0
LINE
  8
0
 62
     0
 10
92.819
 20
92.9831
 30
0.0
 11
92.819
 21
78.9838
 31
0.0
  0
LINE
  8
0
 62
     0
 10
92.819
 20
78.9838
 30
0.0
 11
78.8197
 21
78.9838
 31
0.0
  0
LINE
  8
0
 62
     0
 10
78.8197
 20
78.9838
 30
0.0
 11
78.8197
 21
92.9831
 31
0.0
  0
LINE
  8
0
 62
     0
 10
97.8697
 20
92.9831
 30
0.0
 11
111.869
 21
92.9831
 31
0.0
  0
LINE
  8
0
 62
     0
 10
111.869
 20
92.9831
 30
0.0
 11
111.869
 21
78.9838
 31
0.0
  0
LINE
  8
0
 62
     0
 10
111.869
 20
78.9838
 30
0.0
 11
97.8697
 21
78.9838
 31
0.0
  0
LINE
  8
0
 62
     0
 10
97.8697
 20
78.9838
 30
0.0
 11
97.8697
 21
92.9831
 31
0.0
  0
LINE
  8
0
 62
     0
 10
116.92
 20
92.9831
 30
0.0
 11
130.919
 21
92.9831
 31
0.0
  0
LINE
  8
0
 62
     0
 10
130.919
 20
92.9831
 30
0.0
 11
130.919
 21
78.9838
 31
0.0
  0
LINE
  8
0
 62
     0
 10
130.919
 20
78.9838
 30
0.0
 11
116.92
 21
78.9838
 31
0.0
  0
LINE
  8
0
 62
     0
 10
116.92
 20
78.9838
 30
0.0
 11
116.92
 21
92.9831
 31
0.0
  0
LINE
  8
0
 62
     0
 10
135.97
 20
92.9831
 30
0.0
 11
149.969
 21
92.9831
 31
0.0
  0
LINE
  8
0
 62
     0
 10
149.969
 20
92.9831
 30
0.0
 11
149.969
 21
78.9838
 31
0.0
  0
LINE
  8
0
 62
     0
 10
149.969
 20
78.9838
 30
0.0
 11
135.97
 21
78.9838
 31
0.0
  0
LINE
  8
0
 62
     0
 10
135.97
 20
78.9838
 30
0.0
 11
135.97
 21
92.9831
 31
0.0
  0
LINE
  8
0
 62
     0
 10
155.02
 20
92.9831
 30
0.0
 11
169.019
 21
92.9831
 31
0.0
  0
LINE
  8
0
 62
     0
 10
169.019
 20
92.9831
 30
0.0
 11
169.019
 21
78.9838
 31
0.0
  0
LINE
  8
0
 62
     0
 10
169.019
 20
78.9838
 30
0.0
 11
155.02
 21
78.9838
 31
0.0
  0
LINE
  8
0
 62
     0
 10
155.02
 20
78.9838
 30
0.0
 11
155.02
 21
92.9831
 31
0.0
  0
LINE
  8
0
 62
     0
 10
174.07
 20
92.9831
 30
0.0
 11
188.069
 21
92.9831
 31
0.0
  0
LINE
  8
0
 62
     0
 10
188.069
 20
92.9831
 30
0.0
 11
188.069
 21
78.9838
 31
0.0
  0
LINE
  8
0
 62
     0
 10
188.069
 20
78.9838
 30
0.0
 11
174.07
 21
78.9838
 31
0.0
  0
LINE
  8
0
 62
     0
 10
174.07
 20
78.9838
 30
0.0
 11
174.07
 21
92.9831
 31
0.0
  0
LINE
  8
0
 62
     0
 10
193.12
 20
92.9831
 30
0.0
 11
207.119
 21
92.9831
 31
0.0
  0
LINE
  8
0
 62
     0
 10
207.119
 20
92.9831
 30
0.0
 11
207.119
 21
78.9838
 31
0.0
  0
LINE
  8
0
 62
     0
 10
207.119
 20
78.9838
 30
0.0
 11
193.12
 21
78.9838
 31
0.0
  0
LINE
  8
0
 62
     0
 10
193.12
 20
78.9838
 30
0.0
 11
193.12
 21
92.9831
 31
0.0
  0
LINE
  8
0
 62
     0
 10
212.17
 20
92.9831
 30
0.0
 11
226.169
 21
92.9831
 31
0.0
  0
LINE
  8
0
 62
     0
 10
226.169
 20
92.9831
 30
0.0
 11
226.169
 21
78.9838
 31
0.0
  0
LINE
  8
0
 62
     0
 10
226.169
 20
78.9838
 30
0.0
 11
212.17
 21
78.9838
 31
0.0
  0
LINE
  8
0
 62
     0
 10
212.17
 20
78.9838
 30
0.0
 11
212.17
 21
92.9831
 31
0.0
  0
LINE
  8
0
 62
     0
 10
231.22
 20
92.9831
 30
0.0
 11
245.219
 21
92.9831
 31
0.0
  0
LINE
  8
0
 62
     0
 10
245.219
 20
92.9831
 30
0.0
 11
245.219
 21
78.9838
 31
0.0
  0
LINE
  8
0
 62
     0
 10
245.219
 20
78.9838
 30
0.0
 11
231.22
 21
78.9838
 31
0.0
  0
LINE
  8
0
 62
     0
 10
231.22
 20
78.9838
 30
0.0
 11
231.22
 21
92.9831
 31
0.0
  0
LINE
  8
0
 62
     0
 10
250.27
 20
92.9831
 30
0.0
 11
264.269
 21
92.9831
 31
0.0
  0
LINE
  8
0
 62
     0
 10
264.269
 20
92.9831
 30
0.0
 11
264.269
 21
78.9838
 31
0.0
  0
LINE
  8
0
 62
     0
 10
264.269
 20
78.9838
 30
0.0
 11
250.27
 21
78.9838
 31
0.0
  0
LINE
  8
0
 62
     0
 10
250.27
 20
78.9838
 30
0.0
 11
250.27
 21
92.9831
 31
0.0
  0
LINE
  8
0
 62
     0
 10
269.32
 20
92.9831
 30
0.0
 11
283.319
 21
92.9831
 31
0.0
  0
LINE
  8
0
 62
     0
 10
283.319
 20
92.9831
 30
0.0
 11
283.319
 21
78.9838
 31
0.0
  0
LINE
  8
0
 62
     0
 10
283.319
 20
78.9838
 30
0.0
 11
269.32
 21
78.9838
 31
0.0
  0
LINE
  8
0
 62
     0
 10
269.32
 20
78.9838
 30
0.0
 11
269.32
 21
92.9831
 31
0.0
  0
LINE
  8
0
 62
     0
 10
288.37
 20
92.9831
 30
0.0
 11
302.369
 21
92.9831
 31
0.0
  0
LINE
  8
0
 62
     0
 10
302.369
 20
92.9831
 30
0.0
 11
302.369
 21
78.9838
 31
0.0
  0
LINE
  8
0
 62
     0
 10
302.369
 20
78.9838
 30
0.0
 11
288.37
 21
78.9838
 31
0.0
  0
LINE
  8
0
 62
     0
 10
288.37
 20
78.9838
 30
0.0
 11
288.37
 21
92.9831
 31
0.0
  0
LINE
  8
0
 62
     0
 10
314.562
 20
92.9831
 30
0.0
 11
328.563
 21
92.9831
 31
0.0
  0
LINE
  8
0
 62
     0
 10
328.563
 20
92.9831
 30
0.0
 11
328.563
 21
78.9838
 31
0.0
  0
LINE
  8
0
 62
     0
 10
328.563
 20
78.9838
 30
0.0
 11
314.562
 21
78.9838
 31
0.0
  0
LINE
  8
0
 62
     0
 10
314.562
 20
78.9838
 30
0.0
 11
314.562
 21
92.9831
 31
0.0
  0
ENDSEC
  0
EOF
