  0
SECTION
  2
HEADER
  9
$ACADVER
  1
AC1009
  9
$FILLMODE
 70
 0
  9
$SPLFRAME
 70
 1
  9
$EXTMIN
 10
0
 20
0
 30
0.0
  9
$EXTMAX
 10
1058.33
 20
1058.33
 30
0.0
  0
ENDSEC
  0
SECTION
  2
TABLES
  0
TABLE
  2
LAYER
 70
1
  0
LAYER
  2
0
 70
     0
 62
     7
  6
CONTINUOUS
  0
ENDTAB
  0
ENDSEC
  0
SECTION
  2
ENTITIES
  0
LINE
  8
0
 62
     0
 10
0.0950846
 20
95.5075
 30
0.0
 11
414.433
 21
95.5075
 31
0.0
  0
LINE
  8
0
 62
     0
 10
414.433
 20
95.5075
 30
0.0
 11
414.433
 21
0.257693
 31
0.0
  0
LINE
  8
0
 62
     0
 10
414.433
 20
0.257693
 30
0.0
 11
0.0950846
 21
0.257693
 31
0.0
  0
LINE
  8
0
 62
     0
 10
0.0950846
 20
0.257693
 30
0.0
 11
0.0950846
 21
95.5075
 31
0.0
  0
LINE
  8
0
 62
     0
 10
65.126
 20
16.2333
 30
0.0
 11
68.4251
 21
16.2333
 31
0.0
  0
LINE
  8
0
 62
     0
 10
68.4251
 20
16.2333
 30
0.0
 11
68.4251
 21
2.03261
 31
0.0
  0
LINE
  8
0
 62
     0
 10
68.4251
 20
2.03261
 30
0.0
 11
65.126
 21
2.03261
 31
0.0
  0
LINE
  8
0
 62
     0
 10
65.126
 20
2.03261
 30
0.0
 11
65.126
 21
16.2333
 31
0.0
  0
LINE
  8
0
 62
     0
 10
88.9247
 20
16.2333
 30
0.0
 11
92.2253
 21
16.2333
 31
0.0
  0
LINE
  8
0
 62
     0
 10
92.2253
 20
16.2333
 30
0.0
 11
92.2253
 21
2.03261
 31
0.0
  0
LINE
  8
0
 62
     0
 10
92.2253
 20
2.03261
 30
0.0
 11
88.9247
 21
2.03261
 31
0.0
  0
LINE
  8
0
 62
     0
 10
88.9247
 20
2.03261
 30
0.0
 11
88.9247
 21
16.2333
 31
0.0
  0
LINE
  8
0
 62
     0
 10
286.581
 20
16.2333
 30
0.0
 11
289.881
 21
16.2333
 31
0.0
  0
LINE
  8
0
 62
     0
 10
289.881
 20
16.2333
 30
0.0
 11
289.881
 21
2.03261
 31
0.0
  0
LINE
  8
0
 62
     0
 10
289.881
 20
2.03261
 30
0.0
 11
286.581
 21
2.03261
 31
0.0
  0
LINE
  8
0
 62
     0
 10
286.581
 20
2.03261
 30
0.0
 11
286.581
 21
16.2333
 31
0.0
  0
LINE
  8
0
 62
     0
 10
310.381
 20
16.2333
 30
0.0
 11
313.682
 21
16.2333
 31
0.0
  0
LINE
  8
0
 62
     0
 10
313.682
 20
16.2333
 30
0.0
 11
313.682
 21
2.03261
 31
0.0
  0
LINE
  8
0
 62
     0
 10
313.682
 20
2.03261
 30
0.0
 11
310.381
 21
2.03261
 31
0.0
  0
LINE
  8
0
 62
     0
 10
310.381
 20
2.03261
 30
0.0
 11
310.381
 21
16.2333
 31
0.0
  0
LINE
  8
0
 62
     0
 10
324.681
 20
16.2333
 30
0.0
 11
327.981
 21
16.2333
 31
0.0
  0
LINE
  8
0
 62
     0
 10
327.981
 20
16.2333
 30
0.0
 11
327.981
 21
2.03261
 31
0.0
  0
LINE
  8
0
 62
     0
 10
327.981
 20
2.03261
 30
0.0
 11
324.681
 21
2.03261
 31
0.0
  0
LINE
  8
0
 62
     0
 10
324.681
 20
2.03261
 30
0.0
 11
324.681
 21
16.2333
 31
0.0
  0
LINE
  8
0
 62
     0
 10
348.481
 20
16.2333
 30
0.0
 11
351.782
 21
16.2333
 31
0.0
  0
LINE
  8
0
 62
     0
 10
351.782
 20
16.2333
 30
0.0
 11
351.782
 21
2.03261
 31
0.0
  0
LINE
  8
0
 62
     0
 10
351.782
 20
2.03261
 30
0.0
 11
348.481
 21
2.03261
 31
0.0
  0
LINE
  8
0
 62
     0
 10
348.481
 20
2.03261
 30
0.0
 11
348.481
 21
16.2333
 31
0.0
  0
LINE
  8
0
 62
     0
 10
362.783
 20
16.2333
 30
0.0
 11
366.081
 21
16.2333
 31
0.0
  0
LINE
  8
0
 62
     0
 10
366.081
 20
16.2333
 30
0.0
 11
366.081
 21
2.03261
 31
0.0
  0
LINE
  8
0
 62
     0
 10
366.081
 20
2.03261
 30
0.0
 11
362.783
 21
2.03261
 31
0.0
  0
LINE
  8
0
 62
     0
 10
362.783
 20
2.03261
 30
0.0
 11
362.783
 21
16.2333
 31
0.0
  0
LINE
  8
0
 62
     0
 10
386.581
 20
16.2333
 30
0.0
 11
389.883
 21
16.2333
 31
0.0
  0
LINE
  8
0
 62
     0
 10
389.883
 20
16.2333
 30
0.0
 11
389.883
 21
2.03261
 31
0.0
  0
LINE
  8
0
 62
     0
 10
389.883
 20
2.03261
 30
0.0
 11
386.581
 21
2.03261
 31
0.0
  0
LINE
  8
0
 62
     0
 10
386.581
 20
2.03261
 30
0.0
 11
386.581
 21
16.2333
 31
0.0
  0
LINE
  8
0
 62
     0
 10
2.61965
 20
16.7831
 30
0.0
 11
16.6192
 21
16.7831
 31
0.0
  0
LINE
  8
0
 62
     0
 10
16.6192
 20
16.7831
 30
0.0
 11
16.6192
 21
2.78364
 31
0.0
  0
LINE
  8
0
 62
     0
 10
16.6192
 20
2.78364
 30
0.0
 11
2.61965
 21
2.78364
 31
0.0
  0
LINE
  8
0
 62
     0
 10
2.61965
 20
2.78364
 30
0.0
 11
2.61965
 21
16.7831
 31
0.0
  0
LINE
  8
0
 62
     0
 10
21.6697
 20
16.7831
 30
0.0
 11
35.669
 21
16.7831
 31
0.0
  0
LINE
  8
0
 62
     0
 10
35.669
 20
16.7831
 30
0.0
 11
35.669
 21
2.78364
 31
0.0
  0
LINE
  8
0
 62
     0
 10
35.669
 20
2.78364
 30
0.0
 11
21.6697
 21
2.78364
 31
0.0
  0
LINE
  8
0
 62
     0
 10
21.6697
 20
2.78364
 30
0.0
 11
21.6697
 21
16.7831
 31
0.0
  0
LINE
  8
0
 62
     0
 10
71.676
 20
16.7831
 30
0.0
 11
85.6753
 21
16.7831
 31
0.0
  0
LINE
  8
0
 62
     0
 10
85.6753
 20
16.7831
 30
0.0
 11
85.6753
 21
2.78364
 31
0.0
  0
LINE
  8
0
 62
     0
 10
85.6753
 20
2.78364
 30
0.0
 11
71.676
 21
2.78364
 31
0.0
  0
LINE
  8
0
 62
     0
 10
71.676
 20
2.78364
 30
0.0
 11
71.676
 21
16.7831
 31
0.0
  0
LINE
  8
0
 62
     0
 10
183.595
 20
16.7831
 30
0.0
 11
197.594
 21
16.7831
 31
0.0
  0
LINE
  8
0
 62
     0
 10
197.594
 20
16.7831
 30
0.0
 11
197.594
 21
2.78364
 31
0.0
  0
LINE
  8
0
 62
     0
 10
197.594
 20
2.78364
 30
0.0
 11
183.595
 21
2.78364
 31
0.0
  0
LINE
  8
0
 62
     0
 10
183.595
 20
2.78364
 30
0.0
 11
183.595
 21
16.7831
 31
0.0
  0
LINE
  8
0
 62
     0
 10
293.132
 20
16.7831
 30
0.0
 11
307.132
 21
16.7831
 31
0.0
  0
LINE
  8
0
 62
     0
 10
307.132
 20
16.7831
 30
0.0
 11
307.132
 21
2.78364
 31
0.0
  0
LINE
  8
0
 62
     0
 10
307.132
 20
2.78364
 30
0.0
 11
293.132
 21
2.78364
 31
0.0
  0
LINE
  8
0
 62
     0
 10
293.132
 20
2.78364
 30
0.0
 11
293.132
 21
16.7831
 31
0.0
  0
LINE
  8
0
 62
     0
 10
331.232
 20
16.7831
 30
0.0
 11
345.232
 21
16.7831
 31
0.0
  0
LINE
  8
0
 62
     0
 10
345.232
 20
16.7831
 30
0.0
 11
345.232
 21
2.78364
 31
0.0
  0
LINE
  8
0
 62
     0
 10
345.232
 20
2.78364
 30
0.0
 11
331.232
 21
2.78364
 31
0.0
  0
LINE
  8
0
 62
     0
 10
331.232
 20
2.78364
 30
0.0
 11
331.232
 21
16.7831
 31
0.0
  0
LINE
  8
0
 62
     0
 10
369.334
 20
16.7831
 30
0.0
 11
383.332
 21
16.7831
 31
0.0
  0
LINE
  8
0
 62
     0
 10
383.332
 20
16.7831
 30
0.0
 11
383.332
 21
2.78364
 31
0.0
  0
LINE
  8
0
 62
     0
 10
383.332
 20
2.78364
 30
0.0
 11
369.334
 21
2.78364
 31
0.0
  0
LINE
  8
0
 62
     0
 10
369.334
 20
2.78364
 30
0.0
 11
369.334
 21
16.7831
 31
0.0
  0
LINE
  8
0
 62
     0
 10
397.157
 20
11.4336
 30
0.0
 11
411.357
 21
11.4336
 31
0.0
  0
LINE
  8
0
 62
     0
 10
411.357
 20
11.4336
 30
0.0
 11
411.357
 21
8.13319
 31
0.0
  0
LINE
  8
0
 62
     0
 10
411.357
 20
8.13319
 30
0.0
 11
397.157
 21
8.13319
 31
0.0
  0
LINE
  8
0
 62
     0
 10
397.157
 20
8.13319
 30
0.0
 11
397.157
 21
11.4336
 31
0.0
  0
LINE
  8
0
 62
     0
 10
397.909
 20
35.833
 30
0.0
 11
411.907
 21
35.833
 31
0.0
  0
LINE
  8
0
 62
     0
 10
411.907
 20
35.833
 30
0.0
 11
411.907
 21
21.8336
 31
0.0
  0
LINE
  8
0
 62
     0
 10
411.907
 20
21.8336
 30
0.0
 11
397.909
 21
21.8336
 31
0.0
  0
LINE
  8
0
 62
     0
 10
397.909
 20
21.8336
 30
0.0
 11
397.909
 21
35.833
 31
0.0
  0
LINE
  8
0
 62
     0
 10
2.61965
 20
35.833
 30
0.0
 11
16.6192
 21
35.833
 31
0.0
  0
LINE
  8
0
 62
     0
 10
16.6192
 20
35.833
 30
0.0
 11
16.6192
 21
21.8336
 31
0.0
  0
LINE
  8
0
 62
     0
 10
16.6192
 20
21.8336
 30
0.0
 11
2.61965
 21
21.8336
 31
0.0
  0
LINE
  8
0
 62
     0
 10
2.61965
 20
21.8336
 30
0.0
 11
2.61965
 21
35.833
 31
0.0
  0
LINE
  8
0
 62
     0
 10
21.6697
 20
35.833
 30
0.0
 11
35.669
 21
35.833
 31
0.0
  0
LINE
  8
0
 62
     0
 10
35.669
 20
35.833
 30
0.0
 11
35.669
 21
21.8336
 31
0.0
  0
LINE
  8
0
 62
     0
 10
35.669
 20
21.8336
 30
0.0
 11
21.6697
 21
21.8336
 31
0.0
  0
LINE
  8
0
 62
     0
 10
21.6697
 20
21.8336
 30
0.0
 11
21.6697
 21
35.833
 31
0.0
  0
LINE
  8
0
 62
     0
 10
62.151
 20
35.833
 30
0.0
 11
76.1503
 21
35.833
 31
0.0
  0
LINE
  8
0
 62
     0
 10
76.1503
 20
35.833
 30
0.0
 11
76.1503
 21
21.8336
 31
0.0
  0
LINE
  8
0
 62
     0
 10
76.1503
 20
21.8336
 30
0.0
 11
62.151
 21
21.8336
 31
0.0
  0
LINE
  8
0
 62
     0
 10
62.151
 20
21.8336
 30
0.0
 11
62.151
 21
35.833
 31
0.0
  0
LINE
  8
0
 62
     0
 10
83.5822
 20
35.833
 30
0.0
 11
97.5815
 21
35.833
 31
0.0
  0
LINE
  8
0
 62
     0
 10
97.5815
 20
35.833
 30
0.0
 11
97.5815
 21
21.8336
 31
0.0
  0
LINE
  8
0
 62
     0
 10
97.5815
 20
21.8336
 30
0.0
 11
83.5822
 21
21.8336
 31
0.0
  0
LINE
  8
0
 62
     0
 10
83.5822
 20
21.8336
 30
0.0
 11
83.5822
 21
35.833
 31
0.0
  0
LINE
  8
0
 62
     0
 10
102.632
 20
35.833
 30
0.0
 11
116.632
 21
35.833
 31
0.0
  0
LINE
  8
0
 62
     0
 10
116.632
 20
35.833
 30
0.0
 11
116.632
 21
21.8336
 31
0.0
  0
LINE
  8
0
 62
     0
 10
116.632
 20
21.8336
 30
0.0
 11
102.632
 21
21.8336
 31
0.0
  0
LINE
  8
0
 62
     0
 10
102.632
 20
21.8336
 30
0.0
 11
102.632
 21
35.833
 31
0.0
  0
LINE
  8
0
 62
     0
 10
121.682
 20
35.833
 30
0.0
 11
135.682
 21
35.833
 31
0.0
  0
LINE
  8
0
 62
     0
 10
135.682
 20
35.833
 30
0.0
 11
135.682
 21
21.8336
 31
0.0
  0
LINE
  8
0
 62
     0
 10
135.682
 20
21.8336
 30
0.0
 11
121.682
 21
21.8336
 31
0.0
  0
LINE
  8
0
 62
     0
 10
121.682
 20
21.8336
 30
0.0
 11
121.682
 21
35.833
 31
0.0
  0
LINE
  8
0
 62
     0
 10
140.732
 20
35.833
 30
0.0
 11
154.732
 21
35.833
 31
0.0
  0
LINE
  8
0
 62
     0
 10
154.732
 20
35.833
 30
0.0
 11
154.732
 21
21.8336
 31
0.0
  0
LINE
  8
0
 62
     0
 10
154.732
 20
21.8336
 30
0.0
 11
140.732
 21
21.8336
 31
0.0
  0
LINE
  8
0
 62
     0
 10
140.732
 20
21.8336
 30
0.0
 11
140.732
 21
35.833
 31
0.0
  0
LINE
  8
0
 62
     0
 10
159.782
 20
35.833
 30
0.0
 11
173.782
 21
35.833
 31
0.0
  0
LINE
  8
0
 62
     0
 10
173.782
 20
35.833
 30
0.0
 11
173.782
 21
21.8336
 31
0.0
  0
LINE
  8
0
 62
     0
 10
173.782
 20
21.8336
 30
0.0
 11
159.782
 21
21.8336
 31
0.0
  0
LINE
  8
0
 62
     0
 10
159.782
 20
21.8336
 30
0.0
 11
159.782
 21
35.833
 31
0.0
  0
LINE
  8
0
 62
     0
 10
178.832
 20
35.833
 30
0.0
 11
192.832
 21
35.833
 31
0.0
  0
LINE
  8
0
 62
     0
 10
192.832
 20
35.833
 30
0.0
 11
192.832
 21
21.8336
 31
0.0
  0
LINE
  8
0
 62
     0
 10
192.832
 20
21.8336
 30
0.0
 11
178.832
 21
21.8336
 31
0.0
  0
LINE
  8
0
 62
     0
 10
178.832
 20
21.8336
 30
0.0
 11
178.832
 21
35.833
 31
0.0
  0
LINE
  8
0
 62
     0
 10
197.882
 20
35.833
 30
0.0
 11
211.882
 21
35.833
 31
0.0
  0
LINE
  8
0
 62
     0
 10
211.882
 20
35.833
 30
0.0
 11
211.882
 21
21.8336
 31
0.0
  0
LINE
  8
0
 62
     0
 10
211.882
 20
21.8336
 30
0.0
 11
197.882
 21
21.8336
 31
0.0
  0
LINE
  8
0
 62
     0
 10
197.882
 20
21.8336
 30
0.0
 11
197.882
 21
35.833
 31
0.0
  0
LINE
  8
0
 62
     0
 10
216.932
 20
35.833
 30
0.0
 11
230.932
 21
35.833
 31
0.0
  0
LINE
  8
0
 62
     0
 10
230.932
 20
35.833
 30
0.0
 11
230.932
 21
21.8336
 31
0.0
  0
LINE
  8
0
 62
     0
 10
230.932
 20
21.8336
 30
0.0
 11
216.932
 21
21.8336
 31
0.0
  0
LINE
  8
0
 62
     0
 10
216.932
 20
21.8336
 30
0.0
 11
216.932
 21
35.833
 31
0.0
  0
LINE
  8
0
 62
     0
 10
235.982
 20
35.833
 30
0.0
 11
249.982
 21
35.833
 31
0.0
  0
LINE
  8
0
 62
     0
 10
249.982
 20
35.833
 30
0.0
 11
249.982
 21
21.8336
 31
0.0
  0
LINE
  8
0
 62
     0
 10
249.982
 20
21.8336
 30
0.0
 11
235.982
 21
21.8336
 31
0.0
  0
LINE
  8
0
 62
     0
 10
235.982
 20
21.8336
 30
0.0
 11
235.982
 21
35.833
 31
0.0
  0
LINE
  8
0
 62
     0
 10
255.032
 20
35.833
 30
0.0
 11
269.032
 21
35.833
 31
0.0
  0
LINE
  8
0
 62
     0
 10
269.032
 20
35.833
 30
0.0
 11
269.032
 21
21.8336
 31
0.0
  0
LINE
  8
0
 62
     0
 10
269.032
 20
21.8336
 30
0.0
 11
255.032
 21
21.8336
 31
0.0
  0
LINE
  8
0
 62
     0
 10
255.032
 20
21.8336
 30
0.0
 11
255.032
 21
35.833
 31
0.0
  0
LINE
  8
0
 62
     0
 10
274.082
 20
35.833
 30
0.0
 11
288.082
 21
35.833
 31
0.0
  0
LINE
  8
0
 62
     0
 10
288.082
 20
35.833
 30
0.0
 11
288.082
 21
21.8336
 31
0.0
  0
LINE
  8
0
 62
     0
 10
288.082
 20
21.8336
 30
0.0
 11
274.082
 21
21.8336
 31
0.0
  0
LINE
  8
0
 62
     0
 10
274.082
 20
21.8336
 30
0.0
 11
274.082
 21
35.833
 31
0.0
  0
LINE
  8
0
 62
     0
 10
297.895
 20
35.833
 30
0.0
 11
311.894
 21
35.833
 31
0.0
  0
LINE
  8
0
 62
     0
 10
311.894
 20
35.833
 30
0.0
 11
311.894
 21
21.8336
 31
0.0
  0
LINE
  8
0
 62
     0
 10
311.894
 20
21.8336
 30
0.0
 11
297.895
 21
21.8336
 31
0.0
  0
LINE
  8
0
 62
     0
 10
297.895
 20
21.8336
 30
0.0
 11
297.895
 21
35.833
 31
0.0
  0
LINE
  8
0
 62
     0
 10
321.707
 20
35.833
 30
0.0
 11
335.707
 21
35.833
 31
0.0
  0
LINE
  8
0
 62
     0
 10
335.707
 20
35.833
 30
0.0
 11
335.707
 21
21.8336
 31
0.0
  0
LINE
  8
0
 62
     0
 10
335.707
 20
21.8336
 30
0.0
 11
321.707
 21
21.8336
 31
0.0
  0
LINE
  8
0
 62
     0
 10
321.707
 20
21.8336
 30
0.0
 11
321.707
 21
35.833
 31
0.0
  0
LINE
  8
0
 62
     0
 10
340.757
 20
35.833
 30
0.0
 11
354.757
 21
35.833
 31
0.0
  0
LINE
  8
0
 62
     0
 10
354.757
 20
35.833
 30
0.0
 11
354.757
 21
21.8336
 31
0.0
  0
LINE
  8
0
 62
     0
 10
354.757
 20
21.8336
 30
0.0
 11
340.757
 21
21.8336
 31
0.0
  0
LINE
  8
0
 62
     0
 10
340.757
 20
21.8336
 30
0.0
 11
340.757
 21
35.833
 31
0.0
  0
LINE
  8
0
 62
     0
 10
359.809
 20
35.833
 30
0.0
 11
373.807
 21
35.833
 31
0.0
  0
LINE
  8
0
 62
     0
 10
373.807
 20
35.833
 30
0.0
 11
373.807
 21
21.8336
 31
0.0
  0
LINE
  8
0
 62
     0
 10
373.807
 20
21.8336
 30
0.0
 11
359.809
 21
21.8336
 31
0.0
  0
LINE
  8
0
 62
     0
 10
359.809
 20
21.8336
 30
0.0
 11
359.809
 21
35.833
 31
0.0
  0
LINE
  8
0
 62
     0
 10
378.859
 20
35.833
 30
0.0
 11
392.857
 21
35.833
 31
0.0
  0
LINE
  8
0
 62
     0
 10
392.857
 20
35.833
 30
0.0
 11
392.857
 21
21.8336
 31
0.0
  0
LINE
  8
0
 62
     0
 10
392.857
 20
21.8336
 30
0.0
 11
378.859
 21
21.8336
 31
0.0
  0
LINE
  8
0
 62
     0
 10
378.859
 20
21.8336
 30
0.0
 11
378.859
 21
35.833
 31
0.0
  0
LINE
  8
0
 62
     0
 10
2.61965
 20
54.8831
 30
0.0
 11
16.6192
 21
54.8831
 31
0.0
  0
LINE
  8
0
 62
     0
 10
16.6192
 20
54.8831
 30
0.0
 11
16.6192
 21
40.8838
 31
0.0
  0
LINE
  8
0
 62
     0
 10
16.6192
 20
40.8838
 30
0.0
 11
2.61965
 21
40.8838
 31
0.0
  0
LINE
  8
0
 62
     0
 10
2.61965
 20
40.8838
 30
0.0
 11
2.61965
 21
54.8831
 31
0.0
  0
LINE
  8
0
 62
     0
 10
21.6697
 20
54.8831
 30
0.0
 11
35.669
 21
54.8831
 31
0.0
  0
LINE
  8
0
 62
     0
 10
35.669
 20
54.8831
 30
0.0
 11
35.669
 21
40.8838
 31
0.0
  0
LINE
  8
0
 62
     0
 10
35.669
 20
40.8838
 30
0.0
 11
21.6697
 21
40.8838
 31
0.0
  0
LINE
  8
0
 62
     0
 10
21.6697
 20
40.8838
 30
0.0
 11
21.6697
 21
54.8831
 31
0.0
  0
LINE
  8
0
 62
     0
 10
66.9121
 20
54.8831
 30
0.0
 11
80.9128
 21
54.8831
 31
0.0
  0
LINE
  8
0
 62
     0
 10
80.9128
 20
54.8831
 30
0.0
 11
80.9128
 21
40.8838
 31
0.0
  0
LINE
  8
0
 62
     0
 10
80.9128
 20
40.8838
 30
0.0
 11
66.9121
 21
40.8838
 31
0.0
  0
LINE
  8
0
 62
     0
 10
66.9121
 20
40.8838
 30
0.0
 11
66.9121
 21
54.8831
 31
0.0
  0
LINE
  8
0
 62
     0
 10
93.1072
 20
54.8831
 30
0.0
 11
107.107
 21
54.8831
 31
0.0
  0
LINE
  8
0
 62
     0
 10
107.107
 20
54.8831
 30
0.0
 11
107.107
 21
40.8838
 31
0.0
  0
LINE
  8
0
 62
     0
 10
107.107
 20
40.8838
 30
0.0
 11
93.1072
 21
40.8838
 31
0.0
  0
LINE
  8
0
 62
     0
 10
93.1072
 20
40.8838
 30
0.0
 11
93.1072
 21
54.8831
 31
0.0
  0
LINE
  8
0
 62
     0
 10
112.157
 20
54.8831
 30
0.0
 11
126.157
 21
54.8831
 31
0.0
  0
LINE
  8
0
 62
     0
 10
126.157
 20
54.8831
 30
0.0
 11
126.157
 21
40.8838
 31
0.0
  0
LINE
  8
0
 62
     0
 10
126.157
 20
40.8838
 30
0.0
 11
112.157
 21
40.8838
 31
0.0
  0
LINE
  8
0
 62
     0
 10
112.157
 20
40.8838
 30
0.0
 11
112.157
 21
54.8831
 31
0.0
  0
LINE
  8
0
 62
     0
 10
131.207
 20
54.8831
 30
0.0
 11
145.207
 21
54.8831
 31
0.0
  0
LINE
  8
0
 62
     0
 10
145.207
 20
54.8831
 30
0.0
 11
145.207
 21
40.8838
 31
0.0
  0
LINE
  8
0
 62
     0
 10
145.207
 20
40.8838
 30
0.0
 11
131.207
 21
40.8838
 31
0.0
  0
LINE
  8
0
 62
     0
 10
131.207
 20
40.8838
 30
0.0
 11
131.207
 21
54.8831
 31
0.0
  0
LINE
  8
0
 62
     0
 10
150.257
 20
54.8831
 30
0.0
 11
164.257
 21
54.8831
 31
0.0
  0
LINE
  8
0
 62
     0
 10
164.257
 20
54.8831
 30
0.0
 11
164.257
 21
40.8838
 31
0.0
  0
LINE
  8
0
 62
     0
 10
164.257
 20
40.8838
 30
0.0
 11
150.257
 21
40.8838
 31
0.0
  0
LINE
  8
0
 62
     0
 10
150.257
 20
40.8838
 30
0.0
 11
150.257
 21
54.8831
 31
0.0
  0
LINE
  8
0
 62
     0
 10
169.307
 20
54.8831
 30
0.0
 11
183.307
 21
54.8831
 31
0.0
  0
LINE
  8
0
 62
     0
 10
183.307
 20
54.8831
 30
0.0
 11
183.307
 21
40.8838
 31
0.0
  0
LINE
  8
0
 62
     0
 10
183.307
 20
40.8838
 30
0.0
 11
169.307
 21
40.8838
 31
0.0
  0
LINE
  8
0
 62
     0
 10
169.307
 20
40.8838
 30
0.0
 11
169.307
 21
54.8831
 31
0.0
  0
LINE
  8
0
 62
     0
 10
188.357
 20
54.8831
 30
0.0
 11
202.357
 21
54.8831
 31
0.0
  0
LINE
  8
0
 62
     0
 10
202.357
 20
54.8831
 30
0.0
 11
202.357
 21
40.8838
 31
0.0
  0
LINE
  8
0
 62
     0
 10
202.357
 20
40.8838
 30
0.0
 11
188.357
 21
40.8838
 31
0.0
  0
LINE
  8
0
 62
     0
 10
188.357
 20
40.8838
 30
0.0
 11
188.357
 21
54.8831
 31
0.0
  0
LINE
  8
0
 62
     0
 10
207.407
 20
54.8831
 30
0.0
 11
221.407
 21
54.8831
 31
0.0
  0
LINE
  8
0
 62
     0
 10
221.407
 20
54.8831
 30
0.0
 11
221.407
 21
40.8838
 31
0.0
  0
LINE
  8
0
 62
     0
 10
221.407
 20
40.8838
 30
0.0
 11
207.407
 21
40.8838
 31
0.0
  0
LINE
  8
0
 62
     0
 10
207.407
 20
40.8838
 30
0.0
 11
207.407
 21
54.8831
 31
0.0
  0
LINE
  8
0
 62
     0
 10
226.457
 20
54.8831
 30
0.0
 11
240.457
 21
54.8831
 31
0.0
  0
LINE
  8
0
 62
     0
 10
240.457
 20
54.8831
 30
0.0
 11
240.457
 21
40.8838
 31
0.0
  0
LINE
  8
0
 62
     0
 10
240.457
 20
40.8838
 30
0.0
 11
226.457
 21
40.8838
 31
0.0
  0
LINE
  8
0
 62
     0
 10
226.457
 20
40.8838
 30
0.0
 11
226.457
 21
54.8831
 31
0.0
  0
LINE
  8
0
 62
     0
 10
245.507
 20
54.8831
 30
0.0
 11
259.507
 21
54.8831
 31
0.0
  0
LINE
  8
0
 62
     0
 10
259.507
 20
54.8831
 30
0.0
 11
259.507
 21
40.8838
 31
0.0
  0
LINE
  8
0
 62
     0
 10
259.507
 20
40.8838
 30
0.0
 11
245.507
 21
40.8838
 31
0.0
  0
LINE
  8
0
 62
     0
 10
245.507
 20
40.8838
 30
0.0
 11
245.507
 21
54.8831
 31
0.0
  0
LINE
  8
0
 62
     0
 10
264.557
 20
54.8831
 30
0.0
 11
278.557
 21
54.8831
 31
0.0
  0
LINE
  8
0
 62
     0
 10
278.557
 20
54.8831
 30
0.0
 11
278.557
 21
40.8838
 31
0.0
  0
LINE
  8
0
 62
     0
 10
278.557
 20
40.8838
 30
0.0
 11
264.557
 21
40.8838
 31
0.0
  0
LINE
  8
0
 62
     0
 10
264.557
 20
40.8838
 30
0.0
 11
264.557
 21
54.8831
 31
0.0
  0
LINE
  8
0
 62
     0
 10
283.607
 20
54.8831
 30
0.0
 11
297.607
 21
54.8831
 31
0.0
  0
LINE
  8
0
 62
     0
 10
297.607
 20
54.8831
 30
0.0
 11
297.607
 21
40.8838
 31
0.0
  0
LINE
  8
0
 62
     0
 10
297.607
 20
40.8838
 30
0.0
 11
283.607
 21
40.8838
 31
0.0
  0
LINE
  8
0
 62
     0
 10
283.607
 20
40.8838
 30
0.0
 11
283.607
 21
54.8831
 31
0.0
  0
LINE
  8
0
 62
     0
 10
302.657
 20
54.8831
 30
0.0
 11
316.657
 21
54.8831
 31
0.0
  0
LINE
  8
0
 62
     0
 10
316.657
 20
54.8831
 30
0.0
 11
316.657
 21
40.8838
 31
0.0
  0
LINE
  8
0
 62
     0
 10
316.657
 20
40.8838
 30
0.0
 11
302.657
 21
40.8838
 31
0.0
  0
LINE
  8
0
 62
     0
 10
302.657
 20
40.8838
 30
0.0
 11
302.657
 21
54.8831
 31
0.0
  0
LINE
  8
0
 62
     0
 10
340.757
 20
54.8831
 30
0.0
 11
354.757
 21
54.8831
 31
0.0
  0
LINE
  8
0
 62
     0
 10
354.757
 20
54.8831
 30
0.0
 11
354.757
 21
40.8838
 31
0.0
  0
LINE
  8
0
 62
     0
 10
354.757
 20
40.8838
 30
0.0
 11
340.757
 21
40.8838
 31
0.0
  0
LINE
  8
0
 62
     0
 10
340.757
 20
40.8838
 30
0.0
 11
340.757
 21
54.8831
 31
0.0
  0
LINE
  8
0
 62
     0
 10
359.809
 20
54.8831
 30
0.0
 11
373.807
 21
54.8831
 31
0.0
  0
LINE
  8
0
 62
     0
 10
373.807
 20
54.8831
 30
0.0
 11
373.807
 21
40.8838
 31
0.0
  0
LINE
  8
0
 62
     0
 10
373.807
 20
40.8838
 30
0.0
 11
359.809
 21
40.8838
 31
0.0
  0
LINE
  8
0
 62
     0
 10
359.809
 20
40.8838
 30
0.0
 11
359.809
 21
54.8831
 31
0.0
  0
LINE
  8
0
 62
     0
 10
378.859
 20
54.8831
 30
0.0
 11
392.857
 21
54.8831
 31
0.0
  0
LINE
  8
0
 62
     0
 10
392.857
 20
54.8831
 30
0.0
 11
392.857
 21
40.8838
 31
0.0
  0
LINE
  8
0
 62
     0
 10
392.857
 20
40.8838
 30
0.0
 11
378.859
 21
40.8838
 31
0.0
  0
LINE
  8
0
 62
     0
 10
378.859
 20
40.8838
 30
0.0
 11
378.859
 21
54.8831
 31
0.0
  0
LINE
  8
0
 62
     0
 10
320.956
 20
47.1579
 30
0.0
 11
335.157
 21
47.1579
 31
0.0
  0
LINE
  8
0
 62
     0
 10
335.157
 20
47.1579
 30
0.0
 11
335.157
 21
43.8587
 31
0.0
  0
LINE
  8
0
 62
     0
 10
335.157
 20
43.8587
 30
0.0
 11
320.956
 21
43.8587
 31
0.0
  0
LINE
  8
0
 62
     0
 10
320.956
 20
43.8587
 30
0.0
 11
320.956
 21
47.1579
 31
0.0
  0
LINE
  8
0
 62
     0
 10
397.157
 20
49.5335
 30
0.0
 11
411.357
 21
49.5335
 31
0.0
  0
LINE
  8
0
 62
     0
 10
411.357
 20
49.5335
 30
0.0
 11
411.357
 21
46.2333
 31
0.0
  0
LINE
  8
0
 62
     0
 10
411.357
 20
46.2333
 30
0.0
 11
397.157
 21
46.2333
 31
0.0
  0
LINE
  8
0
 62
     0
 10
397.157
 20
46.2333
 30
0.0
 11
397.157
 21
49.5335
 31
0.0
  0
LINE
  8
0
 62
     0
 10
321.707
 20
64.4081
 30
0.0
 11
335.707
 21
64.4081
 31
0.0
  0
LINE
  8
0
 62
     0
 10
335.707
 20
64.4081
 30
0.0
 11
335.707
 21
50.4088
 31
0.0
  0
LINE
  8
0
 62
     0
 10
335.707
 20
50.4088
 30
0.0
 11
321.707
 21
50.4088
 31
0.0
  0
LINE
  8
0
 62
     0
 10
321.707
 20
50.4088
 30
0.0
 11
321.707
 21
64.4081
 31
0.0
  0
LINE
  8
0
 62
     0
 10
2.61965
 20
73.9331
 30
0.0
 11
16.6192
 21
73.9331
 31
0.0
  0
LINE
  8
0
 62
     0
 10
16.6192
 20
73.9331
 30
0.0
 11
16.6192
 21
59.9338
 31
0.0
  0
LINE
  8
0
 62
     0
 10
16.6192
 20
59.9338
 30
0.0
 11
2.61965
 21
59.9338
 31
0.0
  0
LINE
  8
0
 62
     0
 10
2.61965
 20
59.9338
 30
0.0
 11
2.61965
 21
73.9331
 31
0.0
  0
LINE
  8
0
 62
     0
 10
21.6697
 20
73.9331
 30
0.0
 11
35.669
 21
73.9331
 31
0.0
  0
LINE
  8
0
 62
     0
 10
35.669
 20
73.9331
 30
0.0
 11
35.669
 21
59.9338
 31
0.0
  0
LINE
  8
0
 62
     0
 10
35.669
 20
59.9338
 30
0.0
 11
21.6697
 21
59.9338
 31
0.0
  0
LINE
  8
0
 62
     0
 10
21.6697
 20
59.9338
 30
0.0
 11
21.6697
 21
73.9331
 31
0.0
  0
LINE
  8
0
 62
     0
 10
64.5322
 20
73.9331
 30
0.0
 11
78.5315
 21
73.9331
 31
0.0
  0
LINE
  8
0
 62
     0
 10
78.5315
 20
73.9331
 30
0.0
 11
78.5315
 21
59.9338
 31
0.0
  0
LINE
  8
0
 62
     0
 10
78.5315
 20
59.9338
 30
0.0
 11
64.5322
 21
59.9338
 31
0.0
  0
LINE
  8
0
 62
     0
 10
64.5322
 20
59.9338
 30
0.0
 11
64.5322
 21
73.9331
 31
0.0
  0
LINE
  8
0
 62
     0
 10
88.3447
 20
73.9331
 30
0.0
 11
102.344
 21
73.9331
 31
0.0
  0
LINE
  8
0
 62
     0
 10
102.344
 20
73.9331
 30
0.0
 11
102.344
 21
59.9338
 31
0.0
  0
LINE
  8
0
 62
     0
 10
102.344
 20
59.9338
 30
0.0
 11
88.3447
 21
59.9338
 31
0.0
  0
LINE
  8
0
 62
     0
 10
88.3447
 20
59.9338
 30
0.0
 11
88.3447
 21
73.9331
 31
0.0
  0
LINE
  8
0
 62
     0
 10
107.395
 20
73.9331
 30
0.0
 11
121.394
 21
73.9331
 31
0.0
  0
LINE
  8
0
 62
     0
 10
121.394
 20
73.9331
 30
0.0
 11
121.394
 21
59.9338
 31
0.0
  0
LINE
  8
0
 62
     0
 10
121.394
 20
59.9338
 30
0.0
 11
107.395
 21
59.9338
 31
0.0
  0
LINE
  8
0
 62
     0
 10
107.395
 20
59.9338
 30
0.0
 11
107.395
 21
73.9331
 31
0.0
  0
LINE
  8
0
 62
     0
 10
126.445
 20
73.9331
 30
0.0
 11
140.444
 21
73.9331
 31
0.0
  0
LINE
  8
0
 62
     0
 10
140.444
 20
73.9331
 30
0.0
 11
140.444
 21
59.9338
 31
0.0
  0
LINE
  8
0
 62
     0
 10
140.444
 20
59.9338
 30
0.0
 11
126.445
 21
59.9338
 31
0.0
  0
LINE
  8
0
 62
     0
 10
126.445
 20
59.9338
 30
0.0
 11
126.445
 21
73.9331
 31
0.0
  0
LINE
  8
0
 62
     0
 10
145.495
 20
73.9331
 30
0.0
 11
159.494
 21
73.9331
 31
0.0
  0
LINE
  8
0
 62
     0
 10
159.494
 20
73.9331
 30
0.0
 11
159.494
 21
59.9338
 31
0.0
  0
LINE
  8
0
 62
     0
 10
159.494
 20
59.9338
 30
0.0
 11
145.495
 21
59.9338
 31
0.0
  0
LINE
  8
0
 62
     0
 10
145.495
 20
59.9338
 30
0.0
 11
145.495
 21
73.9331
 31
0.0
  0
LINE
  8
0
 62
     0
 10
164.545
 20
73.9331
 30
0.0
 11
178.544
 21
73.9331
 31
0.0
  0
LINE
  8
0
 62
     0
 10
178.544
 20
73.9331
 30
0.0
 11
178.544
 21
59.9338
 31
0.0
  0
LINE
  8
0
 62
     0
 10
178.544
 20
59.9338
 30
0.0
 11
164.545
 21
59.9338
 31
0.0
  0
LINE
  8
0
 62
     0
 10
164.545
 20
59.9338
 30
0.0
 11
164.545
 21
73.9331
 31
0.0
  0
LINE
  8
0
 62
     0
 10
183.595
 20
73.9331
 30
0.0
 11
197.594
 21
73.9331
 31
0.0
  0
LINE
  8
0
 62
     0
 10
197.594
 20
73.9331
 30
0.0
 11
197.594
 21
59.9338
 31
0.0
  0
LINE
  8
0
 62
     0
 10
197.594
 20
59.9338
 30
0.0
 11
183.595
 21
59.9338
 31
0.0
  0
LINE
  8
0
 62
     0
 10
183.595
 20
59.9338
 30
0.0
 11
183.595
 21
73.9331
 31
0.0
  0
LINE
  8
0
 62
     0
 10
202.645
 20
73.9331
 30
0.0
 11
216.644
 21
73.9331
 31
0.0
  0
LINE
  8
0
 62
     0
 10
216.644
 20
73.9331
 30
0.0
 11
216.644
 21
59.9338
 31
0.0
  0
LINE
  8
0
 62
     0
 10
216.644
 20
59.9338
 30
0.0
 11
202.645
 21
59.9338
 31
0.0
  0
LINE
  8
0
 62
     0
 10
202.645
 20
59.9338
 30
0.0
 11
202.645
 21
73.9331
 31
0.0
  0
LINE
  8
0
 62
     0
 10
221.695
 20
73.9331
 30
0.0
 11
235.694
 21
73.9331
 31
0.0
  0
LINE
  8
0
 62
     0
 10
235.694
 20
73.9331
 30
0.0
 11
235.694
 21
59.9338
 31
0.0
  0
LINE
  8
0
 62
     0
 10
235.694
 20
59.9338
 30
0.0
 11
221.695
 21
59.9338
 31
0.0
  0
LINE
  8
0
 62
     0
 10
221.695
 20
59.9338
 30
0.0
 11
221.695
 21
73.9331
 31
0.0
  0
LINE
  8
0
 62
     0
 10
240.745
 20
73.9331
 30
0.0
 11
254.744
 21
73.9331
 31
0.0
  0
LINE
  8
0
 62
     0
 10
254.744
 20
73.9331
 30
0.0
 11
254.744
 21
59.9338
 31
0.0
  0
LINE
  8
0
 62
     0
 10
254.744
 20
59.9338
 30
0.0
 11
240.745
 21
59.9338
 31
0.0
  0
LINE
  8
0
 62
     0
 10
240.745
 20
59.9338
 30
0.0
 11
240.745
 21
73.9331
 31
0.0
  0
LINE
  8
0
 62
     0
 10
259.795
 20
73.9331
 30
0.0
 11
273.794
 21
73.9331
 31
0.0
  0
LINE
  8
0
 62
     0
 10
273.794
 20
73.9331
 30
0.0
 11
273.794
 21
59.9338
 31
0.0
  0
LINE
  8
0
 62
     0
 10
273.794
 20
59.9338
 30
0.0
 11
259.795
 21
59.9338
 31
0.0
  0
LINE
  8
0
 62
     0
 10
259.795
 20
59.9338
 30
0.0
 11
259.795
 21
73.9331
 31
0.0
  0
LINE
  8
0
 62
     0
 10
278.845
 20
73.9331
 30
0.0
 11
292.844
 21
73.9331
 31
0.0
  0
LINE
  8
0
 62
     0
 10
292.844
 20
73.9331
 30
0.0
 11
292.844
 21
59.9338
 31
0.0
  0
LINE
  8
0
 62
     0
 10
292.844
 20
59.9338
 30
0.0
 11
278.845
 21
59.9338
 31
0.0
  0
LINE
  8
0
 62
     0
 10
278.845
 20
59.9338
 30
0.0
 11
278.845
 21
73.9331
 31
0.0
  0
LINE
  8
0
 62
     0
 10
300.276
 20
73.9331
 30
0.0
 11
314.275
 21
73.9331
 31
0.0
  0
LINE
  8
0
 62
     0
 10
314.275
 20
73.9331
 30
0.0
 11
314.275
 21
59.9338
 31
0.0
  0
LINE
  8
0
 62
     0
 10
314.275
 20
59.9338
 30
0.0
 11
300.276
 21
59.9338
 31
0.0
  0
LINE
  8
0
 62
     0
 10
300.276
 20
59.9338
 30
0.0
 11
300.276
 21
73.9331
 31
0.0
  0
LINE
  8
0
 62
     0
 10
340.757
 20
73.9331
 30
0.0
 11
354.757
 21
73.9331
 31
0.0
  0
LINE
  8
0
 62
     0
 10
354.757
 20
73.9331
 30
0.0
 11
354.757
 21
59.9338
 31
0.0
  0
LINE
  8
0
 62
     0
 10
354.757
 20
59.9338
 30
0.0
 11
340.757
 21
59.9338
 31
0.0
  0
LINE
  8
0
 62
     0
 10
340.757
 20
59.9338
 30
0.0
 11
340.757
 21
73.9331
 31
0.0
  0
LINE
  8
0
 62
     0
 10
359.809
 20
73.9331
 30
0.0
 11
373.807
 21
73.9331
 31
0.0
  0
LINE
  8
0
 62
     0
 10
373.807
 20
73.9331
 30
0.0
 11
373.807
 21
59.9338
 31
0.0
  0
LINE
  8
0
 62
     0
 10
373.807
 20
59.9338
 30
0.0
 11
359.809
 21
59.9338
 31
0.0
  0
LINE
  8
0
 62
     0
 10
359.809
 20
59.9338
 30
0.0
 11
359.809
 21
73.9331
 31
0.0
  0
LINE
  8
0
 62
     0
 10
378.859
 20
73.9331
 30
0.0
 11
392.857
 21
73.9331
 31
0.0
  0
LINE
  8
0
 62
     0
 10
392.857
 20
73.9331
 30
0.0
 11
392.857
 21
59.9338
 31
0.0
  0
LINE
  8
0
 62
     0
 10
392.857
 20
59.9338
 30
0.0
 11
378.859
 21
59.9338
 31
0.0
  0
LINE
  8
0
 62
     0
 10
378.859
 20
59.9338
 30
0.0
 11
378.859
 21
73.9331
 31
0.0
  0
LINE
  8
0
 62
     0
 10
397.909
 20
73.9331
 30
0.0
 11
411.907
 21
73.9331
 31
0.0
  0
LINE
  8
0
 62
     0
 10
411.907
 20
73.9331
 30
0.0
 11
411.907
 21
59.9338
 31
0.0
  0
LINE
  8
0
 62
     0
 10
411.907
 20
59.9338
 30
0.0
 11
397.909
 21
59.9338
 31
0.0
  0
LINE
  8
0
 62
     0
 10
397.909
 20
59.9338
 30
0.0
 11
397.909
 21
73.9331
 31
0.0
  0
LINE
  8
0
 62
     0
 10
320.956
 20
70.9581
 30
0.0
 11
335.157
 21
70.9581
 31
0.0
  0
LINE
  8
0
 62
     0
 10
335.157
 20
70.9581
 30
0.0
 11
335.157
 21
67.6589
 31
0.0
  0
LINE
  8
0
 62
     0
 10
335.157
 20
67.6589
 30
0.0
 11
320.956
 21
67.6589
 31
0.0
  0
LINE
  8
0
 62
     0
 10
320.956
 20
67.6589
 30
0.0
 11
320.956
 21
70.9581
 31
0.0
  0
LINE
  8
0
 62
     0
 10
343.731
 20
92.4348
 30
0.0
 11
347.031
 21
92.4348
 31
0.0
  0
LINE
  8
0
 62
     0
 10
347.031
 20
92.4348
 30
0.0
 11
347.031
 21
78.2327
 31
0.0
  0
LINE
  8
0
 62
     0
 10
347.031
 20
78.2327
 30
0.0
 11
343.731
 21
78.2327
 31
0.0
  0
LINE
  8
0
 62
     0
 10
343.731
 20
78.2327
 30
0.0
 11
343.731
 21
92.4348
 31
0.0
  0
LINE
  8
0
 62
     0
 10
367.531
 20
92.4348
 30
0.0
 11
370.833
 21
92.4348
 31
0.0
  0
LINE
  8
0
 62
     0
 10
370.833
 20
92.4348
 30
0.0
 11
370.833
 21
78.2327
 31
0.0
  0
LINE
  8
0
 62
     0
 10
370.833
 20
78.2327
 30
0.0
 11
367.531
 21
78.2327
 31
0.0
  0
LINE
  8
0
 62
     0
 10
367.531
 20
78.2327
 30
0.0
 11
367.531
 21
92.4348
 31
0.0
  0
LINE
  8
0
 62
     0
 10
381.833
 20
92.4348
 30
0.0
 11
385.131
 21
92.4348
 31
0.0
  0
LINE
  8
0
 62
     0
 10
385.131
 20
92.4348
 30
0.0
 11
385.131
 21
78.2327
 31
0.0
  0
LINE
  8
0
 62
     0
 10
385.131
 20
78.2327
 30
0.0
 11
381.833
 21
78.2327
 31
0.0
  0
LINE
  8
0
 62
     0
 10
381.833
 20
78.2327
 30
0.0
 11
381.833
 21
92.4348
 31
0.0
  0
LINE
  8
0
 62
     0
 10
405.631
 20
92.4348
 30
0.0
 11
408.933
 21
92.4348
 31
0.0
  0
LINE
  8
0
 62
     0
 10
408.933
 20
92.4348
 30
0.0
 11
408.933
 21
78.2327
 31
0.0
  0
LINE
  8
0
 62
     0
 10
408.933
 20
78.2327
 30
0.0
 11
405.631
 21
78.2327
 31
0.0
  0
LINE
  8
0
 62
     0
 10
405.631
 20
78.2327
 30
0.0
 11
405.631
 21
92.4348
 31
0.0
  0
LINE
  8
0
 62
     0
 10
2.61965
 20
92.9831
 30
0.0
 11
16.6192
 21
92.9831
 31
0.0
  0
LINE
  8
0
 62
     0
 10
16.6192
 20
92.9831
 30
0.0
 11
16.6192
 21
78.9838
 31
0.0
  0
LINE
  8
0
 62
     0
 10
16.6192
 20
78.9838
 30
0.0
 11
2.61965
 21
78.9838
 31
0.0
  0
LINE
  8
0
 62
     0
 10
2.61965
 20
78.9838
 30
0.0
 11
2.61965
 21
92.9831
 31
0.0
  0
LINE
  8
0
 62
     0
 10
21.6697
 20
92.9831
 30
0.0
 11
35.669
 21
92.9831
 31
0.0
  0
LINE
  8
0
 62
     0
 10
35.669
 20
92.9831
 30
0.0
 11
35.669
 21
78.9838
 31
0.0
  0
LINE
  8
0
 62
     0
 10
35.669
 20
78.9838
 30
0.0
 11
21.6697
 21
78.9838
 31
0.0
  0
LINE
  8
0
 62
     0
 10
21.6697
 20
78.9838
 30
0.0
 11
21.6697
 21
92.9831
 31
0.0
  0
LINE
  8
0
 62
     0
 10
59.7697
 20
92.9831
 30
0.0
 11
73.769
 21
92.9831
 31
0.0
  0
LINE
  8
0
 62
     0
 10
73.769
 20
92.9831
 30
0.0
 11
73.769
 21
78.9838
 31
0.0
  0
LINE
  8
0
 62
     0
 10
73.769
 20
78.9838
 30
0.0
 11
59.7697
 21
78.9838
 31
0.0
  0
LINE
  8
0
 62
     0
 10
59.7697
 20
78.9838
 30
0.0
 11
59.7697
 21
92.9831
 31
0.0
  0
LINE
  8
0
 62
     0
 10
78.8197
 20
92.9831
 30
0.0
 11
92.819
 21
92.9831
 31
0.0
  0
LINE
  8
0
 62
     0
 10
92.819
 20
92.9831
 30
0.0
 11
92.819
 21
78.9838
 31
0.0
  0
LINE
  8
0
 62
     0
 10
92.819
 20
78.9838
 30
0.0
 11
78.8197
 21
78.9838
 31
0.0
  0
LINE
  8
0
 62
     0
 10
78.8197
 20
78.9838
 30
0.0
 11
78.8197
 21
92.9831
 31
0.0
  0
LINE
  8
0
 62
     0
 10
97.8697
 20
92.9831
 30
0.0
 11
111.869
 21
92.9831
 31
0.0
  0
LINE
  8
0
 62
     0
 10
111.869
 20
92.9831
 30
0.0
 11
111.869
 21
78.9838
 31
0.0
  0
LINE
  8
0
 62
     0
 10
111.869
 20
78.9838
 30
0.0
 11
97.8697
 21
78.9838
 31
0.0
  0
LINE
  8
0
 62
     0
 10
97.8697
 20
78.9838
 30
0.0
 11
97.8697
 21
92.9831
 31
0.0
  0
LINE
  8
0
 62
     0
 10
116.92
 20
92.9831
 30
0.0
 11
130.919
 21
92.9831
 31
0.0
  0
LINE
  8
0
 62
     0
 10
130.919
 20
92.9831
 30
0.0
 11
130.919
 21
78.9838
 31
0.0
  0
LINE
  8
0
 62
     0
 10
130.919
 20
78.9838
 30
0.0
 11
116.92
 21
78.9838
 31
0.0
  0
LINE
  8
0
 62
     0
 10
116.92
 20
78.9838
 30
0.0
 11
116.92
 21
92.9831
 31
0.0
  0
LINE
  8
0
 62
     0
 10
135.97
 20
92.9831
 30
0.0
 11
149.969
 21
92.9831
 31
0.0
  0
LINE
  8
0
 62
     0
 10
149.969
 20
92.9831
 30
0.0
 11
149.969
 21
78.9838
 31
0.0
  0
LINE
  8
0
 62
     0
 10
149.969
 20
78.9838
 30
0.0
 11
135.97
 21
78.9838
 31
0.0
  0
LINE
  8
0
 62
     0
 10
135.97
 20
78.9838
 30
0.0
 11
135.97
 21
92.9831
 31
0.0
  0
LINE
  8
0
 62
     0
 10
155.02
 20
92.9831
 30
0.0
 11
169.019
 21
92.9831
 31
0.0
  0
LINE
  8
0
 62
     0
 10
169.019
 20
92.9831
 30
0.0
 11
169.019
 21
78.9838
 31
0.0
  0
LINE
  8
0
 62
     0
 10
169.019
 20
78.9838
 30
0.0
 11
155.02
 21
78.9838
 31
0.0
  0
LINE
  8
0
 62
     0
 10
155.02
 20
78.9838
 30
0.0
 11
155.02
 21
92.9831
 31
0.0
  0
LINE
  8
0
 62
     0
 10
174.07
 20
92.9831
 30
0.0
 11
188.069
 21
92.9831
 31
0.0
  0
LINE
  8
0
 62
     0
 10
188.069
 20
92.9831
 30
0.0
 11
188.069
 21
78.9838
 31
0.0
  0
LINE
  8
0
 62
     0
 10
188.069
 20
78.9838
 30
0.0
 11
174.07
 21
78.9838
 31
0.0
  0
LINE
  8
0
 62
     0
 10
174.07
 20
78.9838
 30
0.0
 11
174.07
 21
92.9831
 31
0.0
  0
LINE
  8
0
 62
     0
 10
193.12
 20
92.9831
 30
0.0
 11
207.119
 21
92.9831
 31
0.0
  0
LINE
  8
0
 62
     0
 10
207.119
 20
92.9831
 30
0.0
 11
207.119
 21
78.9838
 31
0.0
  0
LINE
  8
0
 62
     0
 10
207.119
 20
78.9838
 30
0.0
 11
193.12
 21
78.9838
 31
0.0
  0
LINE
  8
0
 62
     0
 10
193.12
 20
78.9838
 30
0.0
 11
193.12
 21
92.9831
 31
0.0
  0
LINE
  8
0
 62
     0
 10
212.17
 20
92.9831
 30
0.0
 11
226.169
 21
92.9831
 31
0.0
  0
LINE
  8
0
 62
     0
 10
226.169
 20
92.9831
 30
0.0
 11
226.169
 21
78.9838
 31
0.0
  0
LINE
  8
0
 62
     0
 10
226.169
 20
78.9838
 30
0.0
 11
212.17
 21
78.9838
 31
0.0
  0
LINE
  8
0
 62
     0
 10
212.17
 20
78.9838
 30
0.0
 11
212.17
 21
92.9831
 31
0.0
  0
LINE
  8
0
 62
     0
 10
231.22
 20
92.9831
 30
0.0
 11
245.219
 21
92.9831
 31
0.0
  0
LINE
  8
0
 62
     0
 10
245.219
 20
92.9831
 30
0.0
 11
245.219
 21
78.9838
 31
0.0
  0
LINE
  8
0
 62
     0
 10
245.219
 20
78.9838
 30
0.0
 11
231.22
 21
78.9838
 31
0.0
  0
LINE
  8
0
 62
     0
 10
231.22
 20
78.9838
 30
0.0
 11
231.22
 21
92.9831
 31
0.0
  0
LINE
  8
0
 62
     0
 10
250.27
 20
92.9831
 30
0.0
 11
264.269
 21
92.9831
 31
0.0
  0
LINE
  8
0
 62
     0
 10
264.269
 20
92.9831
 30
0.0
 11
264.269
 21
78.9838
 31
0.0
  0
LINE
  8
0
 62
     0
 10
264.269
 20
78.9838
 30
0.0
 11
250.27
 21
78.9838
 31
0.0
  0
LINE
  8
0
 62
     0
 10
250.27
 20
78.9838
 30
0.0
 11
250.27
 21
92.9831
 31
0.0
  0
LINE
  8
0
 62
     0
 10
269.32
 20
92.9831
 30
0.0
 11
283.319
 21
92.9831
 31
0.0
  0
LINE
  8
0
 62
     0
 10
283.319
 20
92.9831
 30
0.0
 11
283.319
 21
78.9838
 31
0.0
  0
LINE
  8
0
 62
     0
 10
283.319
 20
78.9838
 30
0.0
 11
269.32
 21
78.9838
 31
0.0
  0
LINE
  8
0
 62
     0
 10
269.32
 20
78.9838
 30
0.0
 11
269.32
 21
92.9831
 31
0.0
  0
LINE
  8
0
 62
     0
 10
288.37
 20
92.9831
 30
0.0
 11
302.369
 21
92.9831
 31
0.0
  0
LINE
  8
0
 62
     0
 10
302.369
 20
92.9831
 30
0.0
 11
302.369
 21
78.9838
 31
0.0
  0
LINE
  8
0
 62
     0
 10
302.369
 20
78.9838
 30
0.0
 11
288.37
 21
78.9838
 31
0.0
  0
LINE
  8
0
 62
     0
 10
288.37
 20
78.9838
 30
0.0
 11
288.37
 21
92.9831
 31
0.0
  0
LINE
  8
0
 62
     0
 10
314.562
 20
92.9831
 30
0.0
 11
328.563
 21
92.9831
 31
0.0
  0
LINE
  8
0
 62
     0
 10
328.563
 20
92.9831
 30
0.0
 11
328.563
 21
78.9838
 31
0.0
  0
LINE
  8
0
 62
     0
 10
328.563
 20
78.9838
 30
0.0
 11
314.562
 21
78.9838
 31
0.0
  0
LINE
  8
0
 62
     0
 10
314.562
 20
78.9838
 30
0.0
 11
314.562
 21
92.9831
 31
0.0
  0
LINE
  8
0
 62
     0
 10
350.282
 20
92.9831
 30
0.0
 11
364.282
 21
92.9831
 31
0.0
  0
LINE
  8
0
 62
     0
 10
364.282
 20
92.9831
 30
0.0
 11
364.282
 21
78.9838
 31
0.0
  0
LINE
  8
0
 62
     0
 10
364.282
 20
78.9838
 30
0.0
 11
350.282
 21
78.9838
 31
0.0
  0
LINE
  8
0
 62
     0
 10
350.282
 20
78.9838
 30
0.0
 11
350.282
 21
92.9831
 31
0.0
  0
LINE
  8
0
 62
     0
 10
388.384
 20
92.9831
 30
0.0
 11
402.382
 21
92.9831
 31
0.0
  0
LINE
  8
0
 62
     0
 10
402.382
 20
92.9831
 30
0.0
 11
402.382
 21
78.9838
 31
0.0
  0
LINE
  8
0
 62
     0
 10
402.382
 20
78.9838
 30
0.0
 11
388.384
 21
78.9838
 31
0.0
  0
LINE
  8
0
 62
     0
 10
388.384
 20
78.9838
 30
0.0
 11
388.384
 21
92.9831
 31
0.0
  0
ENDSEC
  0
EOF
